{"glyphs":{"0":{"ha":799,"x_min":0,"x_max":0,"o":"m 556 972 l 139 972 l 139 833 l 556 833 z m 556 833 l 556 139 l 694 139 l 694 833 z m 556 139 l 139 139 l 139 0 l 556 0 z m 0 833 l 0 139 l 139 139 l 139 833 z "},"1":{"ha":799,"x_min":0,"x_max":0,"o":"m 278 833 l 278 972 l 0 972 l 0 833 z m 278 833 l 278 139 l 0 139 l 0 0 l 694 0 l 694 139 l 417 139 l 417 833 z "},"2":{"ha":938,"x_min":0,"x_max":0,"o":"m 694 972 l 139 972 l 139 833 l 694 833 z m 0 833 l 0 694 l 139 694 l 139 833 z m 694 833 l 694 556 l 833 556 l 833 833 z m 694 556 l 278 556 l 278 417 l 694 417 z m 0 278 l 0 0 l 833 0 l 833 139 l 139 139 l 139 278 z m 139 417 l 139 278 l 278 278 l 278 417 z "},"3":{"ha":938,"x_min":0,"x_max":0,"o":"m 0 833 l 0 694 l 139 694 l 139 833 z m 139 972 l 139 833 l 694 833 l 694 972 z m 694 833 l 694 556 l 833 556 l 833 833 z m 694 556 l 278 556 l 278 417 l 694 417 z m 694 417 l 694 139 l 833 139 l 833 417 z m 694 139 l 139 139 l 139 0 l 694 0 z m 139 139 l 139 278 l 0 278 l 0 139 z "},"4":{"ha":938,"x_min":0,"x_max":0,"o":"m 0 833 l 0 278 l 417 278 l 417 0 l 556 0 l 556 278 l 833 278 l 833 417 l 556 417 l 556 972 l 417 972 l 417 417 l 139 417 l 139 833 z "},"5":{"ha":938,"x_min":0,"x_max":0,"o":"m 833 972 l 0 972 l 0 417 l 278 417 l 278 556 l 139 556 l 139 833 l 833 833 z m 278 694 l 278 556 l 694 556 l 694 694 z m 694 556 l 694 278 l 833 278 l 833 556 z m 556 278 l 556 139 l 694 139 l 694 278 z m 556 139 l 139 139 l 139 0 l 556 0 z m 0 278 l 0 139 l 139 139 l 139 278 z "},"6":{"ha":938,"x_min":0,"x_max":0,"o":"m 278 972 l 278 833 l 694 833 l 694 972 z m 139 833 l 139 694 l 278 694 l 278 833 z m 0 694 l 0 139 l 139 139 l 139 278 l 278 278 l 278 417 l 139 417 l 139 694 z m 278 556 l 278 417 l 694 417 l 694 556 z m 694 417 l 694 139 l 833 139 l 833 417 z m 694 139 l 139 139 l 139 0 l 694 0 z m 694 833 l 694 694 l 833 694 l 833 833 z "},"7":{"ha":938,"x_min":0,"x_max":0,"o":"m 0 972 l 0 833 l 694 833 l 694 972 z m 694 833 l 694 694 l 833 694 l 833 833 z m 556 694 l 556 556 l 694 556 l 694 694 z m 417 556 l 417 417 l 556 417 l 556 556 z m 278 417 l 278 278 l 417 278 l 417 417 z m 139 278 l 139 139 l 278 139 l 278 278 z m 0 139 l 0 0 l 139 0 l 139 139 z "},"8":{"ha":938,"x_min":0,"x_max":0,"o":"m 694 972 l 139 972 l 139 833 l 694 833 z m 0 833 l 0 694 l 139 694 l 139 833 z m 694 833 l 694 694 l 833 694 l 833 833 z m 556 694 l 556 556 l 694 556 l 694 694 z m 556 556 l 278 556 l 278 417 l 556 417 z m 139 694 l 139 556 l 278 556 l 278 694 z m 139 417 l 139 278 l 278 278 l 278 417 z m 0 278 l 0 139 l 139 139 l 139 278 z m 139 139 l 139 0 l 694 0 l 694 139 z m 694 278 l 694 417 l 556 417 l 556 278 z m 694 278 l 694 139 l 833 139 l 833 278 z "},"9":{"ha":938,"x_min":0,"x_max":0,"o":"m 556 972 l 139 972 l 139 833 l 556 833 z m 0 833 l 0 556 l 139 556 l 139 833 z m 139 556 l 139 417 l 556 417 l 556 556 z m 556 833 l 556 556 l 694 556 l 694 278 l 833 278 l 833 694 l 694 694 l 694 833 z m 556 278 l 556 139 l 694 139 l 694 278 z m 556 139 l 139 139 l 139 0 l 556 0 z m 139 139 l 139 278 l 0 278 l 0 139 z "}," ":{"ha":486,"x_min":0,"x_max":0,"o":""}," ":{"ha":486,"x_min":0,"x_max":0,"o":""},"A":{"ha":1076,"x_min":0,"x_max":0,"o":"m 417 972 l 417 694 l 556 694 l 556 972 z m 278 694 l 278 417 l 139 417 l 139 139 l 278 139 l 278 278 l 694 278 l 694 139 l 833 139 l 833 417 l 694 417 l 694 694 l 556 694 l 556 417 l 417 417 l 417 694 z m 0 139 l 0 0 l 139 0 l 139 139 z m 833 139 l 833 0 l 972 0 l 972 139 z "},"Á":{"ha":1076,"x_min":0,"x_max":0,"o":"m 417 972 l 417 694 l 556 694 l 556 972 z m 278 694 l 278 417 l 139 417 l 139 139 l 278 139 l 278 278 l 694 278 l 694 139 l 833 139 l 833 417 l 694 417 l 694 694 l 556 694 l 556 417 l 417 417 l 417 694 z m 0 139 l 0 0 l 139 0 l 139 139 z m 833 139 l 833 0 l 972 0 l 972 139 z m 417 1250 l 417 1111 l 556 1111 l 556 1250 z m 556 1389 l 556 1250 l 694 1250 l 694 1389 z m 694 1528 l 694 1389 l 833 1389 l 833 1528 z "},"Ă":{"ha":1076,"x_min":0,"x_max":0,"o":"m 417 972 l 417 694 l 556 694 l 556 972 z m 278 694 l 278 417 l 139 417 l 139 139 l 278 139 l 278 278 l 694 278 l 694 139 l 833 139 l 833 417 l 694 417 l 694 694 l 556 694 l 556 417 l 417 417 l 417 694 z m 0 139 l 0 0 l 139 0 l 139 139 z m 833 139 l 833 0 l 972 0 l 972 139 z m 347 1250 l 347 1389 l 208 1389 l 208 1250 z m 347 1250 l 347 1111 l 625 1111 l 625 1250 z m 625 1389 l 625 1250 l 764 1250 l 764 1389 z "},"Â":{"ha":1076,"x_min":0,"x_max":0,"o":"m 417 972 l 417 694 l 556 694 l 556 972 z m 278 694 l 278 417 l 139 417 l 139 139 l 278 139 l 278 278 l 694 278 l 694 139 l 833 139 l 833 417 l 694 417 l 694 694 l 556 694 l 556 417 l 417 417 l 417 694 z m 0 139 l 0 0 l 139 0 l 139 139 z m 833 139 l 833 0 l 972 0 l 972 139 z m 417 1389 l 417 1250 l 556 1250 l 556 1389 z m 278 1250 l 278 1111 l 417 1111 l 417 1250 z m 556 1250 l 556 1111 l 694 1111 l 694 1250 z "},"Ä":{"ha":1076,"x_min":0,"x_max":0,"o":"m 417 972 l 417 694 l 556 694 l 556 972 z m 278 694 l 278 417 l 139 417 l 139 139 l 278 139 l 278 278 l 694 278 l 694 139 l 833 139 l 833 417 l 694 417 l 694 694 l 556 694 l 556 417 l 417 417 l 417 694 z m 0 139 l 0 0 l 139 0 l 139 139 z m 833 139 l 833 0 l 972 0 l 972 139 z m 278 1389 l 278 1250 l 417 1250 l 417 1389 z m 556 1389 l 556 1250 l 694 1250 l 694 1389 z "},"À":{"ha":1076,"x_min":0,"x_max":0,"o":"m 417 972 l 417 694 l 556 694 l 556 972 z m 278 694 l 278 417 l 139 417 l 139 139 l 278 139 l 278 278 l 694 278 l 694 139 l 833 139 l 833 417 l 694 417 l 694 694 l 556 694 l 556 417 l 417 417 l 417 694 z m 0 139 l 0 0 l 139 0 l 139 139 z m 833 139 l 833 0 l 972 0 l 972 139 z m 278 1389 l 278 1528 l 139 1528 l 139 1389 z m 278 1389 l 278 1250 l 417 1250 l 417 1389 z m 417 1250 l 417 1111 l 556 1111 l 556 1250 z "},"Ā":{"ha":1076,"x_min":0,"x_max":0,"o":"m 417 972 l 417 694 l 556 694 l 556 972 z m 278 694 l 278 417 l 139 417 l 139 139 l 278 139 l 278 278 l 694 278 l 694 139 l 833 139 l 833 417 l 694 417 l 694 694 l 556 694 l 556 417 l 417 417 l 417 694 z m 0 139 l 0 0 l 139 0 l 139 139 z m 833 139 l 833 0 l 972 0 l 972 139 z m 694 1389 l 278 1389 l 278 1250 l 694 1250 z "},"Å":{"ha":1076,"x_min":0,"x_max":0,"o":"m 417 972 l 417 694 l 556 694 l 556 972 z m 278 694 l 278 417 l 139 417 l 139 139 l 278 139 l 278 278 l 694 278 l 694 139 l 833 139 l 833 417 l 694 417 l 694 694 l 556 694 l 556 417 l 417 417 l 417 694 z m 0 139 l 0 0 l 139 0 l 139 139 z m 833 139 l 833 0 l 972 0 l 972 139 z m 417 1528 l 417 1389 l 556 1389 l 556 1528 z m 278 1389 l 278 1250 l 417 1250 l 417 1389 z m 556 1389 l 556 1250 l 694 1250 l 694 1389 z m 417 1250 l 417 1111 l 556 1111 l 556 1250 z "},"Ã":{"ha":1076,"x_min":0,"x_max":0,"o":"m 417 972 l 417 694 l 556 694 l 556 972 z m 278 694 l 278 417 l 139 417 l 139 139 l 278 139 l 278 278 l 694 278 l 694 139 l 833 139 l 833 417 l 694 417 l 694 694 l 556 694 l 556 417 l 417 417 l 417 694 z m 0 139 l 0 0 l 139 0 l 139 139 z m 833 139 l 833 0 l 972 0 l 972 139 z m 278 1528 l 278 1389 l 417 1389 l 417 1528 z m 417 1389 l 417 1250 l 556 1250 l 556 1389 z m 139 1389 l 139 1111 l 278 1111 l 278 1389 z m 556 1250 l 556 1111 l 694 1111 l 694 1250 z m 694 1528 l 694 1250 l 833 1250 l 833 1528 z "},"Æ":{"ha":1493,"x_min":0,"x_max":0,"o":"m 278 694 l 278 417 l 139 417 l 139 139 l 278 139 l 278 278 l 556 278 l 556 0 l 1389 0 l 1389 139 l 694 139 l 694 417 l 1250 417 l 1250 556 l 694 556 l 694 833 l 1389 833 l 1389 972 l 417 972 l 417 694 l 556 694 l 556 417 l 417 417 l 417 694 z m 0 139 l 0 0 l 139 0 l 139 139 z "},"B":{"ha":938,"x_min":0,"x_max":0,"o":"m 0 972 l 0 0 l 694 0 l 694 139 l 139 139 l 139 417 l 694 417 l 694 556 l 139 556 l 139 833 l 694 833 l 694 972 z m 694 417 l 694 139 l 833 139 l 833 417 z m 694 833 l 694 556 l 833 556 l 833 833 z "},"C":{"ha":938,"x_min":0,"x_max":0,"o":"m 139 278 l 139 694 l 0 694 l 0 278 z m 139 278 l 139 139 l 278 139 l 278 278 z m 694 278 l 694 139 l 833 139 l 833 278 z m 694 972 l 278 972 l 278 833 l 694 833 z m 278 139 l 278 0 l 694 0 l 694 139 z m 694 833 l 694 694 l 833 694 l 833 833 z m 139 833 l 139 694 l 278 694 l 278 833 z "},"Ć":{"ha":938,"x_min":0,"x_max":0,"o":"m 139 278 l 139 694 l 0 694 l 0 278 z m 139 278 l 139 139 l 278 139 l 278 278 z m 694 278 l 694 139 l 833 139 l 833 278 z m 694 972 l 278 972 l 278 833 l 694 833 z m 278 139 l 278 0 l 694 0 l 694 139 z m 694 833 l 694 694 l 833 694 l 833 833 z m 139 833 l 139 694 l 278 694 l 278 833 z m 294 1250 l 294 1111 l 433 1111 l 433 1250 z m 433 1389 l 433 1250 l 572 1250 l 572 1389 z m 572 1528 l 572 1389 l 711 1389 l 711 1528 z "},"Č":{"ha":938,"x_min":0,"x_max":0,"o":"m 139 278 l 139 694 l 0 694 l 0 278 z m 139 278 l 139 139 l 278 139 l 278 278 z m 694 278 l 694 139 l 833 139 l 833 278 z m 694 972 l 278 972 l 278 833 l 694 833 z m 278 139 l 278 0 l 694 0 l 694 139 z m 694 833 l 694 694 l 833 694 l 833 833 z m 139 833 l 139 694 l 278 694 l 278 833 z m 225 1389 l 225 1250 l 364 1250 l 364 1389 z m 364 1250 l 364 1111 l 503 1111 l 503 1250 z m 503 1389 l 503 1250 l 642 1250 l 642 1389 z "},"Ç":{"ha":938,"x_min":0,"x_max":0,"o":"m 139 278 l 139 694 l 0 694 l 0 278 z m 139 278 l 139 139 l 278 139 l 278 278 z m 694 278 l 694 139 l 833 139 l 833 278 z m 694 972 l 278 972 l 278 833 l 694 833 z m 278 139 l 278 0 l 415 0 l 415 -139 l 554 -139 l 554 0 l 694 0 l 694 139 z m 694 833 l 694 694 l 833 694 l 833 833 z m 139 833 l 139 694 l 278 694 l 278 833 z m 554 -139 l 554 -278 l 693 -278 l 693 -139 z m 276 -278 l 276 -139 l 138 -139 l 138 -278 z m 276 -278 l 276 -417 l 554 -417 l 554 -278 z "},"Ċ":{"ha":938,"x_min":0,"x_max":0,"o":"m 139 278 l 139 694 l 0 694 l 0 278 z m 139 278 l 139 139 l 278 139 l 278 278 z m 694 278 l 694 139 l 833 139 l 833 278 z m 694 972 l 278 972 l 278 833 l 694 833 z m 278 139 l 278 0 l 694 0 l 694 139 z m 694 833 l 694 694 l 833 694 l 833 833 z m 139 833 l 139 694 l 278 694 l 278 833 z m 364 1389 l 364 1250 l 503 1250 l 503 1389 z "},"D":{"ha":938,"x_min":0,"x_max":0,"o":"m 0 972 l 0 0 l 556 0 l 556 139 l 139 139 l 139 833 l 556 833 l 556 972 z m 694 694 l 694 833 l 556 833 l 556 694 z m 694 694 l 694 278 l 833 278 l 833 694 z m 556 278 l 556 139 l 694 139 l 694 278 z "},"Ď":{"ha":938,"x_min":0,"x_max":0,"o":"m 0 972 l 0 0 l 556 0 l 556 139 l 139 139 l 139 833 l 556 833 l 556 972 z m 694 694 l 694 833 l 556 833 l 556 694 z m 694 694 l 694 278 l 833 278 l 833 694 z m 556 278 l 556 139 l 694 139 l 694 278 z m 278 1389 l 278 1250 l 417 1250 l 417 1389 z m 417 1250 l 417 1111 l 556 1111 l 556 1250 z m 556 1389 l 556 1250 l 694 1250 l 694 1389 z "},"Ð":{"ha":1076,"x_min":0,"x_max":0,"o":"m 139 417 l 139 0 l 694 0 l 694 139 l 278 139 l 278 417 l 556 417 l 556 556 l 278 556 l 278 833 l 694 833 l 694 972 l 139 972 l 139 556 l 0 556 l 0 417 z m 833 694 l 833 833 l 694 833 l 694 694 z m 833 694 l 833 278 l 972 278 l 972 694 z m 694 278 l 694 139 l 833 139 l 833 278 z "},"E":{"ha":938,"x_min":0,"x_max":0,"o":"m 0 972 l 0 0 l 833 0 l 833 139 l 139 139 l 139 417 l 694 417 l 694 556 l 139 556 l 139 833 l 833 833 l 833 972 z "},"É":{"ha":938,"x_min":0,"x_max":0,"o":"m 0 972 l 0 0 l 833 0 l 833 139 l 139 139 l 139 417 l 694 417 l 694 556 l 139 556 l 139 833 l 833 833 l 833 972 z m 347 1250 l 347 1111 l 486 1111 l 486 1250 z m 486 1389 l 486 1250 l 625 1250 l 625 1389 z m 625 1528 l 625 1389 l 764 1389 l 764 1528 z "},"Ě":{"ha":938,"x_min":0,"x_max":0,"o":"m 0 972 l 0 0 l 833 0 l 833 139 l 139 139 l 139 417 l 694 417 l 694 556 l 139 556 l 139 833 l 833 833 l 833 972 z m 278 1389 l 278 1250 l 417 1250 l 417 1389 z m 417 1250 l 417 1111 l 556 1111 l 556 1250 z m 556 1389 l 556 1250 l 694 1250 l 694 1389 z "},"Ê":{"ha":938,"x_min":0,"x_max":0,"o":"m 0 972 l 0 0 l 833 0 l 833 139 l 139 139 l 139 417 l 694 417 l 694 556 l 139 556 l 139 833 l 833 833 l 833 972 z m 347 1389 l 347 1250 l 486 1250 l 486 1389 z m 208 1250 l 208 1111 l 347 1111 l 347 1250 z m 486 1250 l 486 1111 l 625 1111 l 625 1250 z "},"Ë":{"ha":938,"x_min":0,"x_max":0,"o":"m 0 972 l 0 0 l 833 0 l 833 139 l 139 139 l 139 417 l 694 417 l 694 556 l 139 556 l 139 833 l 833 833 l 833 972 z m 208 1389 l 208 1250 l 347 1250 l 347 1389 z m 486 1389 l 486 1250 l 625 1250 l 625 1389 z "},"Ė":{"ha":938,"x_min":0,"x_max":0,"o":"m 0 972 l 0 0 l 833 0 l 833 139 l 139 139 l 139 417 l 694 417 l 694 556 l 139 556 l 139 833 l 833 833 l 833 972 z m 417 1389 l 417 1250 l 556 1250 l 556 1389 z "},"È":{"ha":938,"x_min":0,"x_max":0,"o":"m 0 972 l 0 0 l 833 0 l 833 139 l 139 139 l 139 417 l 694 417 l 694 556 l 139 556 l 139 833 l 833 833 l 833 972 z m 208 1389 l 208 1528 l 69 1528 l 69 1389 z m 208 1389 l 208 1250 l 347 1250 l 347 1389 z m 347 1250 l 347 1111 l 486 1111 l 486 1250 z "},"Ē":{"ha":938,"x_min":0,"x_max":0,"o":"m 0 972 l 0 0 l 833 0 l 833 139 l 139 139 l 139 417 l 694 417 l 694 556 l 139 556 l 139 833 l 833 833 l 833 972 z m 625 1389 l 208 1389 l 208 1250 l 625 1250 z "},"F":{"ha":938,"x_min":0,"x_max":0,"o":"m 0 972 l 0 0 l 139 0 l 139 417 l 694 417 l 694 556 l 139 556 l 139 833 l 833 833 l 833 972 z "},"G":{"ha":1076,"x_min":0,"x_max":0,"o":"m 139 278 l 139 694 l 0 694 l 0 278 z m 139 278 l 139 139 l 278 139 l 278 278 z m 694 972 l 278 972 l 278 833 l 694 833 z m 278 139 l 278 0 l 694 0 l 694 139 z m 139 833 l 139 694 l 278 694 l 278 833 z m 972 556 l 417 556 l 417 417 l 833 417 l 833 278 l 972 278 z m 694 278 l 694 139 l 833 139 l 833 278 z m 694 833 l 694 694 l 833 694 l 833 833 z "},"Ǧ":{"ha":1076,"x_min":0,"x_max":0,"o":"m 139 278 l 139 694 l 0 694 l 0 278 z m 139 278 l 139 139 l 278 139 l 278 278 z m 694 972 l 278 972 l 278 833 l 694 833 z m 278 139 l 278 0 l 694 0 l 694 139 z m 139 833 l 139 694 l 278 694 l 278 833 z m 972 556 l 417 556 l 417 417 l 833 417 l 833 278 l 972 278 z m 694 278 l 694 139 l 833 139 l 833 278 z m 694 833 l 694 694 l 833 694 l 833 833 z m 347 1389 l 347 1250 l 486 1250 l 486 1389 z m 486 1250 l 486 1111 l 625 1111 l 625 1250 z m 625 1389 l 625 1250 l 764 1250 l 764 1389 z "},"H":{"ha":938,"x_min":0,"x_max":0,"o":"m 0 972 l 0 0 l 139 0 l 139 417 l 694 417 l 694 0 l 833 0 l 833 972 l 694 972 l 694 556 l 139 556 l 139 972 z "},"I":{"ha":799,"x_min":0,"x_max":0,"o":"m 278 139 l 0 139 l 0 0 l 694 0 l 694 139 l 417 139 l 417 833 l 694 833 l 694 972 l 0 972 l 0 833 l 278 833 z "},"Ĳ":{"ha":1736,"x_min":0,"x_max":0,"o":"m 278 139 l 0 139 l 0 0 l 694 0 l 694 139 l 417 139 l 417 833 l 694 833 l 694 972 l 0 972 l 0 833 l 278 833 z m 1493 972 l 1493 278 l 1632 278 l 1632 972 z m 1354 139 l 938 139 l 938 0 l 1354 0 z m 938 139 l 938 417 l 799 417 l 799 139 z m 1354 278 l 1354 139 l 1493 139 l 1493 278 z "},"Í":{"ha":799,"x_min":0,"x_max":0,"o":"m 278 139 l 0 139 l 0 0 l 694 0 l 694 139 l 417 139 l 417 833 l 694 833 l 694 972 l 0 972 l 0 833 l 278 833 z m 278 1250 l 278 1111 l 417 1111 l 417 1250 z m 417 1389 l 417 1250 l 556 1250 l 556 1389 z m 556 1528 l 556 1389 l 694 1389 l 694 1528 z "},"Î":{"ha":799,"x_min":0,"x_max":0,"o":"m 278 139 l 0 139 l 0 0 l 694 0 l 694 139 l 417 139 l 417 833 l 694 833 l 694 972 l 0 972 l 0 833 l 278 833 z m 278 1389 l 278 1250 l 417 1250 l 417 1389 z m 139 1250 l 139 1111 l 278 1111 l 278 1250 z m 417 1250 l 417 1111 l 556 1111 l 556 1250 z "},"Ï":{"ha":799,"x_min":0,"x_max":0,"o":"m 278 139 l 0 139 l 0 0 l 694 0 l 694 139 l 417 139 l 417 833 l 694 833 l 694 972 l 0 972 l 0 833 l 278 833 z m 139 1389 l 139 1250 l 278 1250 l 278 1389 z m 417 1389 l 417 1250 l 556 1250 l 556 1389 z "},"Ì":{"ha":799,"x_min":0,"x_max":0,"o":"m 278 139 l 0 139 l 0 0 l 694 0 l 694 139 l 417 139 l 417 833 l 694 833 l 694 972 l 0 972 l 0 833 l 278 833 z m 139 1389 l 139 1528 l 0 1528 l 0 1389 z m 139 1389 l 139 1250 l 278 1250 l 278 1389 z m 278 1250 l 278 1111 l 417 1111 l 417 1250 z "},"Ī":{"ha":799,"x_min":0,"x_max":0,"o":"m 278 139 l 0 139 l 0 0 l 694 0 l 694 139 l 417 139 l 417 833 l 694 833 l 694 972 l 0 972 l 0 833 l 278 833 z m 556 1389 l 139 1389 l 139 1250 l 556 1250 z "},"Į":{"ha":799,"x_min":0,"x_max":0,"o":"m 278 139 l 0 139 l 0 0 l 278 0 l 278 -125 l 417 -125 l 417 0 l 694 0 l 694 139 l 417 139 l 417 833 l 694 833 l 694 972 l 0 972 l 0 833 l 278 833 z m 139 -125 l 139 -264 l 278 -264 l 278 -125 z m 278 -264 l 278 -403 l 556 -403 l 556 -264 z m 556 -125 l 556 -264 l 694 -264 l 694 -125 z "},"J":{"ha":938,"x_min":0,"x_max":0,"o":"m 694 972 l 694 278 l 833 278 l 833 972 z m 556 139 l 139 139 l 139 0 l 556 0 z m 139 139 l 139 417 l 0 417 l 0 139 z m 556 278 l 556 139 l 694 139 l 694 278 z "},"K":{"ha":938,"x_min":0,"x_max":0,"o":"m 694 972 l 694 833 l 833 833 l 833 972 z m 139 556 l 139 972 l 0 972 l 0 0 l 139 0 l 139 417 l 417 417 l 417 556 z m 556 833 l 556 694 l 694 694 l 694 833 z m 417 417 l 417 278 l 556 278 l 556 417 z m 556 278 l 556 139 l 694 139 l 694 278 z m 694 139 l 694 0 l 833 0 l 833 139 z m 417 694 l 417 556 l 556 556 l 556 694 z "},"Ǩ":{"ha":938,"x_min":0,"x_max":0,"o":"m 694 972 l 694 833 l 833 833 l 833 972 z m 139 556 l 139 972 l 0 972 l 0 0 l 139 0 l 139 417 l 417 417 l 417 556 z m 556 833 l 556 694 l 694 694 l 694 833 z m 417 417 l 417 278 l 556 278 l 556 417 z m 556 278 l 556 139 l 694 139 l 694 278 z m 694 139 l 694 0 l 833 0 l 833 139 z m 417 694 l 417 556 l 556 556 l 556 694 z m 278 1389 l 278 1250 l 417 1250 l 417 1389 z m 417 1250 l 417 1111 l 556 1111 l 556 1250 z m 556 1389 l 556 1250 l 694 1250 l 694 1389 z "},"L":{"ha":938,"x_min":0,"x_max":0,"o":"m 0 972 l 0 0 l 833 0 l 833 139 l 139 139 l 139 972 z "},"M":{"ha":1354,"x_min":0,"x_max":0,"o":"m 139 417 l 139 139 l 278 139 l 278 417 z m 278 972 l 278 417 l 417 417 l 417 972 z m 0 139 l 0 0 l 139 0 l 139 139 z m 417 417 l 417 278 l 556 278 l 556 417 z m 1111 139 l 1111 417 l 972 417 l 972 139 z m 1111 139 l 1111 0 l 1250 0 l 1250 139 z m 556 278 l 556 0 l 694 0 l 694 278 z m 833 972 l 833 417 l 972 417 l 972 972 z m 694 417 l 694 278 l 833 278 l 833 417 z "},"N":{"ha":938,"x_min":0,"x_max":0,"o":"m 0 972 l 0 0 l 139 0 l 139 694 l 278 694 l 278 833 l 139 833 l 139 972 z m 694 139 l 694 0 l 833 0 l 833 972 l 694 972 l 694 278 l 556 278 l 556 139 z m 278 694 l 278 417 l 417 417 l 417 694 z m 417 417 l 417 278 l 556 278 l 556 417 z "},"Ň":{"ha":938,"x_min":0,"x_max":0,"o":"m 0 972 l 0 0 l 139 0 l 139 694 l 278 694 l 278 833 l 139 833 l 139 972 z m 694 139 l 694 0 l 833 0 l 833 972 l 694 972 l 694 278 l 556 278 l 556 139 z m 278 694 l 278 417 l 417 417 l 417 694 z m 417 417 l 417 278 l 556 278 l 556 417 z m 278 1389 l 278 1250 l 417 1250 l 417 1389 z m 417 1250 l 417 1111 l 556 1111 l 556 1250 z m 556 1389 l 556 1250 l 694 1250 l 694 1389 z "},"Ñ":{"ha":938,"x_min":0,"x_max":0,"o":"m 0 972 l 0 0 l 139 0 l 139 694 l 278 694 l 278 833 l 139 833 l 139 972 z m 694 139 l 694 0 l 833 0 l 833 972 l 694 972 l 694 278 l 556 278 l 556 139 z m 278 694 l 278 417 l 417 417 l 417 694 z m 417 417 l 417 278 l 556 278 l 556 417 z m 208 1528 l 208 1389 l 347 1389 l 347 1528 z m 347 1389 l 347 1250 l 486 1250 l 486 1389 z m 69 1389 l 69 1111 l 208 1111 l 208 1389 z m 486 1250 l 486 1111 l 625 1111 l 625 1250 z m 625 1528 l 625 1250 l 764 1250 l 764 1528 z "},"O":{"ha":1076,"x_min":0,"x_max":0,"o":"m 139 278 l 139 694 l 0 694 l 0 278 z m 139 278 l 139 139 l 278 139 l 278 278 z m 139 833 l 139 694 l 278 694 l 278 833 z m 833 694 l 833 833 l 694 833 l 694 694 z m 833 694 l 833 278 l 972 278 l 972 694 z m 278 972 l 278 833 l 694 833 l 694 972 z m 278 139 l 278 0 l 694 0 l 694 139 z m 694 278 l 694 139 l 833 139 l 833 278 z "},"Ó":{"ha":1076,"x_min":0,"x_max":0,"o":"m 139 278 l 139 694 l 0 694 l 0 278 z m 139 278 l 139 139 l 278 139 l 278 278 z m 139 833 l 139 694 l 278 694 l 278 833 z m 833 694 l 833 833 l 694 833 l 694 694 z m 833 694 l 833 278 l 972 278 l 972 694 z m 278 972 l 278 833 l 694 833 l 694 972 z m 278 139 l 278 0 l 694 0 l 694 139 z m 694 278 l 694 139 l 833 139 l 833 278 z m 417 1250 l 417 1111 l 556 1111 l 556 1250 z m 556 1389 l 556 1250 l 694 1250 l 694 1389 z m 694 1528 l 694 1389 l 833 1389 l 833 1528 z "},"Ô":{"ha":1076,"x_min":0,"x_max":0,"o":"m 139 278 l 139 694 l 0 694 l 0 278 z m 139 278 l 139 139 l 278 139 l 278 278 z m 139 833 l 139 694 l 278 694 l 278 833 z m 833 694 l 833 833 l 694 833 l 694 694 z m 833 694 l 833 278 l 972 278 l 972 694 z m 278 972 l 278 833 l 694 833 l 694 972 z m 278 139 l 278 0 l 694 0 l 694 139 z m 694 278 l 694 139 l 833 139 l 833 278 z m 417 1389 l 417 1250 l 556 1250 l 556 1389 z m 278 1250 l 278 1111 l 417 1111 l 417 1250 z m 556 1250 l 556 1111 l 694 1111 l 694 1250 z "},"Ö":{"ha":1076,"x_min":0,"x_max":0,"o":"m 139 278 l 139 694 l 0 694 l 0 278 z m 139 278 l 139 139 l 278 139 l 278 278 z m 139 833 l 139 694 l 278 694 l 278 833 z m 833 694 l 833 833 l 694 833 l 694 694 z m 833 694 l 833 278 l 972 278 l 972 694 z m 278 972 l 278 833 l 694 833 l 694 972 z m 278 139 l 278 0 l 694 0 l 694 139 z m 694 278 l 694 139 l 833 139 l 833 278 z m 278 1389 l 278 1250 l 417 1250 l 417 1389 z m 556 1389 l 556 1250 l 694 1250 l 694 1389 z "},"Ò":{"ha":1076,"x_min":0,"x_max":0,"o":"m 139 278 l 139 694 l 0 694 l 0 278 z m 139 278 l 139 139 l 278 139 l 278 278 z m 139 833 l 139 694 l 278 694 l 278 833 z m 833 694 l 833 833 l 694 833 l 694 694 z m 833 694 l 833 278 l 972 278 l 972 694 z m 278 972 l 278 833 l 694 833 l 694 972 z m 278 139 l 278 0 l 694 0 l 694 139 z m 694 278 l 694 139 l 833 139 l 833 278 z m 278 1389 l 278 1528 l 139 1528 l 139 1389 z m 278 1389 l 278 1250 l 417 1250 l 417 1389 z m 417 1250 l 417 1111 l 556 1111 l 556 1250 z "},"Ō":{"ha":1076,"x_min":0,"x_max":0,"o":"m 139 278 l 139 694 l 0 694 l 0 278 z m 139 278 l 139 139 l 278 139 l 278 278 z m 139 833 l 139 694 l 278 694 l 278 833 z m 833 694 l 833 833 l 694 833 l 694 694 z m 833 694 l 833 278 l 972 278 l 972 694 z m 278 972 l 278 833 l 694 833 l 694 972 z m 278 139 l 278 0 l 694 0 l 694 139 z m 694 278 l 694 139 l 833 139 l 833 278 z m 694 1389 l 278 1389 l 278 1250 l 694 1250 z "},"Ø":{"ha":1076,"x_min":0,"x_max":0,"o":"m 0 694 l 0 278 l 139 278 l 139 694 z m 139 833 l 139 694 l 278 694 l 278 833 z m 833 694 l 833 833 l 694 833 l 694 694 z m 833 694 l 833 278 l 972 278 l 972 694 z m 694 278 l 694 139 l 833 139 l 833 278 z m 278 972 l 278 833 l 694 833 l 694 972 z m 278 139 l 278 278 l 139 278 l 139 139 z m 278 139 l 278 0 l 694 0 l 694 139 z m 417 556 l 417 417 l 556 417 l 556 556 z m 278 417 l 278 278 l 417 278 l 417 417 z m 556 694 l 556 556 l 694 556 l 694 694 z m 0 139 l 0 0 l 139 0 l 139 139 z m 833 972 l 833 833 l 972 833 l 972 972 z "},"Õ":{"ha":1076,"x_min":0,"x_max":0,"o":"m 139 278 l 139 694 l 0 694 l 0 278 z m 139 278 l 139 139 l 278 139 l 278 278 z m 139 833 l 139 694 l 278 694 l 278 833 z m 833 694 l 833 833 l 694 833 l 694 694 z m 833 694 l 833 278 l 972 278 l 972 694 z m 278 972 l 278 833 l 694 833 l 694 972 z m 278 139 l 278 0 l 694 0 l 694 139 z m 694 278 l 694 139 l 833 139 l 833 278 z m 278 1528 l 278 1389 l 417 1389 l 417 1528 z m 417 1389 l 417 1250 l 556 1250 l 556 1389 z m 139 1389 l 139 1111 l 278 1111 l 278 1389 z m 556 1250 l 556 1111 l 694 1111 l 694 1250 z m 694 1528 l 694 1250 l 833 1250 l 833 1528 z "},"Œ":{"ha":1771,"x_min":0,"x_max":0,"o":"m 139 278 l 139 694 l 0 694 l 0 278 z m 139 278 l 139 139 l 278 139 l 278 278 z m 139 833 l 139 694 l 278 694 l 278 833 z m 833 694 l 833 278 l 694 278 l 694 139 l 833 139 l 833 0 l 1667 0 l 1667 139 l 972 139 l 972 417 l 1528 417 l 1528 556 l 972 556 l 972 833 l 1667 833 l 1667 972 l 833 972 l 833 833 l 694 833 l 694 694 z m 278 972 l 278 833 l 694 833 l 694 972 z m 278 139 l 278 0 l 694 0 l 694 139 z "},"P":{"ha":938,"x_min":0,"x_max":0,"o":"m 0 972 l 0 0 l 139 0 l 139 417 l 694 417 l 694 556 l 139 556 l 139 833 l 694 833 l 694 972 z m 694 833 l 694 556 l 833 556 l 833 833 z "},"Þ":{"ha":938,"x_min":0,"x_max":0,"o":"m 0 972 l 0 0 l 139 0 l 139 278 l 694 278 l 694 417 l 139 417 l 139 694 l 694 694 l 694 833 l 139 833 l 139 972 z m 694 694 l 694 417 l 833 417 l 833 694 z "},"Q":{"ha":938,"x_min":0,"x_max":0,"o":"m 139 278 l 139 694 l 0 694 l 0 278 z m 139 278 l 139 139 l 278 139 l 278 278 z m 139 833 l 139 694 l 278 694 l 278 833 z m 556 833 l 556 972 l 278 972 l 278 833 z m 556 833 l 556 694 l 694 694 l 694 833 z m 694 694 l 694 278 l 833 278 l 833 694 z m 556 139 l 278 139 l 278 0 l 556 0 z m 556 278 l 556 417 l 417 417 l 417 278 z m 556 278 l 556 139 l 694 139 l 694 278 z m 694 139 l 694 0 l 833 0 l 833 139 z "},"R":{"ha":938,"x_min":0,"x_max":0,"o":"m 0 972 l 0 0 l 139 0 l 139 417 l 417 417 l 417 278 l 556 278 l 556 417 l 694 417 l 694 556 l 139 556 l 139 833 l 694 833 l 694 972 z m 694 833 l 694 556 l 833 556 l 833 833 z m 556 278 l 556 139 l 694 139 l 694 278 z m 694 139 l 694 0 l 833 0 l 833 139 z "},"Ŕ":{"ha":938,"x_min":0,"x_max":0,"o":"m 0 972 l 0 0 l 139 0 l 139 417 l 417 417 l 417 278 l 556 278 l 556 417 l 694 417 l 694 556 l 139 556 l 139 833 l 694 833 l 694 972 z m 694 833 l 694 556 l 833 556 l 833 833 z m 556 278 l 556 139 l 694 139 l 694 278 z m 694 139 l 694 0 l 833 0 l 833 139 z m 347 1250 l 347 1111 l 486 1111 l 486 1250 z m 486 1389 l 486 1250 l 625 1250 l 625 1389 z m 625 1528 l 625 1389 l 764 1389 l 764 1528 z "},"Ř":{"ha":938,"x_min":0,"x_max":0,"o":"m 0 972 l 0 0 l 139 0 l 139 417 l 417 417 l 417 278 l 556 278 l 556 417 l 694 417 l 694 556 l 139 556 l 139 833 l 694 833 l 694 972 z m 694 833 l 694 556 l 833 556 l 833 833 z m 556 278 l 556 139 l 694 139 l 694 278 z m 694 139 l 694 0 l 833 0 l 833 139 z m 278 1389 l 278 1250 l 417 1250 l 417 1389 z m 417 1250 l 417 1111 l 556 1111 l 556 1250 z m 556 1389 l 556 1250 l 694 1250 l 694 1389 z "},"S":{"ha":938,"x_min":0,"x_max":0,"o":"m 0 278 l 0 139 l 139 139 l 139 278 z m 694 417 l 694 139 l 833 139 l 833 417 z m 0 833 l 0 556 l 139 556 l 139 833 z m 139 972 l 139 833 l 694 833 l 694 972 z m 139 139 l 139 0 l 694 0 l 694 139 z m 694 833 l 694 694 l 833 694 l 833 833 z m 694 556 l 139 556 l 139 417 l 694 417 z "},"Ś":{"ha":938,"x_min":0,"x_max":0,"o":"m 0 278 l 0 139 l 139 139 l 139 278 z m 694 417 l 694 139 l 833 139 l 833 417 z m 0 833 l 0 556 l 139 556 l 139 833 z m 139 972 l 139 833 l 694 833 l 694 972 z m 139 139 l 139 0 l 694 0 l 694 139 z m 694 833 l 694 694 l 833 694 l 833 833 z m 694 556 l 139 556 l 139 417 l 694 417 z m 294 1250 l 294 1111 l 433 1111 l 433 1250 z m 433 1389 l 433 1250 l 572 1250 l 572 1389 z m 572 1528 l 572 1389 l 711 1389 l 711 1528 z "},"Š":{"ha":938,"x_min":0,"x_max":0,"o":"m 0 278 l 0 139 l 139 139 l 139 278 z m 694 417 l 694 139 l 833 139 l 833 417 z m 0 833 l 0 556 l 139 556 l 139 833 z m 139 972 l 139 833 l 694 833 l 694 972 z m 139 139 l 139 0 l 694 0 l 694 139 z m 694 833 l 694 694 l 833 694 l 833 833 z m 694 556 l 139 556 l 139 417 l 694 417 z m 225 1389 l 225 1250 l 364 1250 l 364 1389 z m 364 1250 l 364 1111 l 503 1111 l 503 1250 z m 503 1389 l 503 1250 l 642 1250 l 642 1389 z "},"Ş":{"ha":938,"x_min":0,"x_max":0,"o":"m 0 278 l 0 139 l 139 139 l 139 278 z m 694 417 l 694 139 l 833 139 l 833 417 z m 0 833 l 0 556 l 139 556 l 139 833 z m 139 972 l 139 833 l 694 833 l 694 972 z m 139 139 l 139 0 l 415 0 l 415 -139 l 554 -139 l 554 0 l 694 0 l 694 139 z m 694 833 l 694 694 l 833 694 l 833 833 z m 694 556 l 139 556 l 139 417 l 694 417 z m 554 -139 l 554 -278 l 693 -278 l 693 -139 z m 276 -278 l 276 -139 l 138 -139 l 138 -278 z m 276 -278 l 276 -417 l 554 -417 l 554 -278 z "},"ẞ":{"ha":938,"x_min":0,"x_max":0,"o":"m 0 972 l 0 0 l 139 0 l 139 833 l 417 833 l 417 694 l 556 694 l 556 833 l 694 833 l 694 972 z m 278 694 l 278 556 l 417 556 l 417 694 z m 417 556 l 417 417 l 694 417 l 694 556 z m 694 417 l 694 139 l 833 139 l 833 417 z m 694 139 l 417 139 l 417 0 l 694 0 z m 417 139 l 417 278 l 278 278 l 278 139 z "},"T":{"ha":1076,"x_min":0,"x_max":0,"o":"m 417 833 l 417 0 l 556 0 l 556 833 l 972 833 l 972 972 l 0 972 l 0 833 z "},"U":{"ha":938,"x_min":0,"x_max":0,"o":"m 139 278 l 139 972 l 0 972 l 0 278 z m 139 278 l 139 139 l 278 139 l 278 278 z m 694 972 l 694 278 l 556 278 l 556 139 l 694 139 l 694 0 l 833 0 l 833 972 z m 556 139 l 278 139 l 278 0 l 556 0 z "},"Ú":{"ha":938,"x_min":0,"x_max":0,"o":"m 139 278 l 139 972 l 0 972 l 0 278 z m 139 278 l 139 139 l 278 139 l 278 278 z m 694 972 l 694 278 l 556 278 l 556 139 l 694 139 l 694 0 l 833 0 l 833 972 z m 556 139 l 278 139 l 278 0 l 556 0 z m 347 1250 l 347 1111 l 486 1111 l 486 1250 z m 486 1389 l 486 1250 l 625 1250 l 625 1389 z m 625 1528 l 625 1389 l 764 1389 l 764 1528 z "},"Û":{"ha":938,"x_min":0,"x_max":0,"o":"m 139 278 l 139 972 l 0 972 l 0 278 z m 139 278 l 139 139 l 278 139 l 278 278 z m 694 972 l 694 278 l 556 278 l 556 139 l 694 139 l 694 0 l 833 0 l 833 972 z m 556 139 l 278 139 l 278 0 l 556 0 z m 347 1389 l 347 1250 l 486 1250 l 486 1389 z m 208 1250 l 208 1111 l 347 1111 l 347 1250 z m 486 1250 l 486 1111 l 625 1111 l 625 1250 z "},"Ü":{"ha":938,"x_min":0,"x_max":0,"o":"m 139 278 l 139 972 l 0 972 l 0 278 z m 139 278 l 139 139 l 278 139 l 278 278 z m 694 972 l 694 278 l 556 278 l 556 139 l 694 139 l 694 0 l 833 0 l 833 972 z m 556 139 l 278 139 l 278 0 l 556 0 z m 208 1389 l 208 1250 l 347 1250 l 347 1389 z m 486 1389 l 486 1250 l 625 1250 l 625 1389 z "},"Ù":{"ha":938,"x_min":0,"x_max":0,"o":"m 139 278 l 139 972 l 0 972 l 0 278 z m 139 278 l 139 139 l 278 139 l 278 278 z m 694 972 l 694 278 l 556 278 l 556 139 l 694 139 l 694 0 l 833 0 l 833 972 z m 556 139 l 278 139 l 278 0 l 556 0 z m 208 1389 l 208 1528 l 69 1528 l 69 1389 z m 208 1389 l 208 1250 l 347 1250 l 347 1389 z m 347 1250 l 347 1111 l 486 1111 l 486 1250 z "},"Ū":{"ha":938,"x_min":0,"x_max":0,"o":"m 139 278 l 139 972 l 0 972 l 0 278 z m 139 278 l 139 139 l 278 139 l 278 278 z m 694 972 l 694 278 l 556 278 l 556 139 l 694 139 l 694 0 l 833 0 l 833 972 z m 556 139 l 278 139 l 278 0 l 556 0 z m 625 1389 l 208 1389 l 208 1250 l 625 1250 z "},"V":{"ha":1076,"x_min":0,"x_max":0,"o":"m 139 833 l 139 556 l 278 556 l 278 833 z m 139 833 l 139 972 l 0 972 l 0 833 z m 278 556 l 278 278 l 417 278 l 417 556 z m 556 556 l 556 278 l 694 278 l 694 556 z m 833 972 l 833 833 l 972 833 l 972 972 z m 417 278 l 417 0 l 556 0 l 556 278 z m 694 833 l 694 556 l 833 556 l 833 833 z "},"W":{"ha":1354,"x_min":0,"x_max":0,"o":"m 139 694 l 139 972 l 0 972 l 0 694 z m 139 694 l 139 278 l 278 278 l 278 694 z m 278 278 l 278 0 l 417 0 l 417 278 z m 556 694 l 556 417 l 694 417 l 694 694 z m 417 417 l 417 278 l 556 278 l 556 417 z m 694 417 l 694 278 l 833 278 l 833 417 z m 833 278 l 833 0 l 972 0 l 972 278 z m 972 694 l 972 278 l 1111 278 l 1111 694 z m 1111 972 l 1111 694 l 1250 694 l 1250 972 z "},"Ẃ":{"ha":1354,"x_min":0,"x_max":0,"o":"m 139 694 l 139 972 l 0 972 l 0 694 z m 139 694 l 139 278 l 278 278 l 278 694 z m 278 278 l 278 0 l 417 0 l 417 278 z m 556 694 l 556 417 l 694 417 l 694 694 z m 417 417 l 417 278 l 556 278 l 556 417 z m 694 417 l 694 278 l 833 278 l 833 417 z m 833 278 l 833 0 l 972 0 l 972 278 z m 972 694 l 972 278 l 1111 278 l 1111 694 z m 1111 972 l 1111 694 l 1250 694 l 1250 972 z m 556 1250 l 556 1111 l 694 1111 l 694 1250 z m 694 1389 l 694 1250 l 833 1250 l 833 1389 z m 833 1528 l 833 1389 l 972 1389 l 972 1528 z "},"Ŵ":{"ha":1354,"x_min":0,"x_max":0,"o":"m 139 694 l 139 972 l 0 972 l 0 694 z m 139 694 l 139 278 l 278 278 l 278 694 z m 278 278 l 278 0 l 417 0 l 417 278 z m 556 694 l 556 417 l 694 417 l 694 694 z m 417 417 l 417 278 l 556 278 l 556 417 z m 694 417 l 694 278 l 833 278 l 833 417 z m 833 278 l 833 0 l 972 0 l 972 278 z m 972 694 l 972 278 l 1111 278 l 1111 694 z m 1111 972 l 1111 694 l 1250 694 l 1250 972 z m 556 1389 l 556 1250 l 694 1250 l 694 1389 z m 417 1250 l 417 1111 l 556 1111 l 556 1250 z m 694 1250 l 694 1111 l 833 1111 l 833 1250 z "},"Ẅ":{"ha":1354,"x_min":0,"x_max":0,"o":"m 139 694 l 139 972 l 0 972 l 0 694 z m 139 694 l 139 278 l 278 278 l 278 694 z m 278 278 l 278 0 l 417 0 l 417 278 z m 556 694 l 556 417 l 694 417 l 694 694 z m 417 417 l 417 278 l 556 278 l 556 417 z m 694 417 l 694 278 l 833 278 l 833 417 z m 833 278 l 833 0 l 972 0 l 972 278 z m 972 694 l 972 278 l 1111 278 l 1111 694 z m 1111 972 l 1111 694 l 1250 694 l 1250 972 z m 417 1389 l 417 1250 l 556 1250 l 556 1389 z m 694 1389 l 694 1250 l 833 1250 l 833 1389 z "},"Ẁ":{"ha":1354,"x_min":0,"x_max":0,"o":"m 139 694 l 139 972 l 0 972 l 0 694 z m 139 694 l 139 278 l 278 278 l 278 694 z m 278 278 l 278 0 l 417 0 l 417 278 z m 556 694 l 556 417 l 694 417 l 694 694 z m 417 417 l 417 278 l 556 278 l 556 417 z m 694 417 l 694 278 l 833 278 l 833 417 z m 833 278 l 833 0 l 972 0 l 972 278 z m 972 694 l 972 278 l 1111 278 l 1111 694 z m 1111 972 l 1111 694 l 1250 694 l 1250 972 z m 417 1389 l 417 1528 l 278 1528 l 278 1389 z m 417 1389 l 417 1250 l 556 1250 l 556 1389 z m 556 1250 l 556 1111 l 694 1111 l 694 1250 z "},"X":{"ha":1076,"x_min":0,"x_max":0,"o":"m 278 694 l 278 833 l 139 833 l 139 694 z m 278 694 l 278 556 l 417 556 l 417 694 z m 139 833 l 139 972 l 0 972 l 0 833 z m 833 972 l 833 833 l 972 833 l 972 972 z m 417 556 l 417 417 l 556 417 l 556 556 z m 556 417 l 556 278 l 694 278 l 694 417 z m 694 278 l 694 139 l 833 139 l 833 278 z m 556 694 l 556 556 l 694 556 l 694 694 z m 694 833 l 694 694 l 833 694 l 833 833 z m 278 417 l 278 278 l 417 278 l 417 417 z m 139 278 l 139 139 l 278 139 l 278 278 z m 0 139 l 0 0 l 139 0 l 139 139 z m 833 139 l 833 0 l 972 0 l 972 139 z "},"Y":{"ha":1076,"x_min":0,"x_max":0,"o":"m 278 694 l 278 833 l 139 833 l 139 694 z m 278 694 l 278 556 l 417 556 l 417 694 z m 139 833 l 139 972 l 0 972 l 0 833 z m 417 556 l 417 0 l 556 0 l 556 556 z m 833 972 l 833 833 l 972 833 l 972 972 z m 556 694 l 556 556 l 694 556 l 694 694 z m 694 833 l 694 694 l 833 694 l 833 833 z "},"Ý":{"ha":1076,"x_min":0,"x_max":0,"o":"m 278 694 l 278 833 l 139 833 l 139 694 z m 278 694 l 278 556 l 417 556 l 417 694 z m 139 833 l 139 972 l 0 972 l 0 833 z m 417 556 l 417 0 l 556 0 l 556 556 z m 833 972 l 833 833 l 972 833 l 972 972 z m 556 694 l 556 556 l 694 556 l 694 694 z m 694 833 l 694 694 l 833 694 l 833 833 z m 417 1250 l 417 1111 l 556 1111 l 556 1250 z m 556 1389 l 556 1250 l 694 1250 l 694 1389 z m 694 1528 l 694 1389 l 833 1389 l 833 1528 z "},"Ŷ":{"ha":1076,"x_min":0,"x_max":0,"o":"m 278 694 l 278 833 l 139 833 l 139 694 z m 278 694 l 278 556 l 417 556 l 417 694 z m 139 833 l 139 972 l 0 972 l 0 833 z m 417 556 l 417 0 l 556 0 l 556 556 z m 833 972 l 833 833 l 972 833 l 972 972 z m 556 694 l 556 556 l 694 556 l 694 694 z m 694 833 l 694 694 l 833 694 l 833 833 z m 417 1389 l 417 1250 l 556 1250 l 556 1389 z m 278 1250 l 278 1111 l 417 1111 l 417 1250 z m 556 1250 l 556 1111 l 694 1111 l 694 1250 z "},"Ÿ":{"ha":1076,"x_min":0,"x_max":0,"o":"m 278 694 l 278 833 l 139 833 l 139 694 z m 278 694 l 278 556 l 417 556 l 417 694 z m 139 833 l 139 972 l 0 972 l 0 833 z m 417 556 l 417 0 l 556 0 l 556 556 z m 833 972 l 833 833 l 972 833 l 972 972 z m 556 694 l 556 556 l 694 556 l 694 694 z m 694 833 l 694 694 l 833 694 l 833 833 z m 278 1389 l 278 1250 l 417 1250 l 417 1389 z m 556 1389 l 556 1250 l 694 1250 l 694 1389 z "},"Ỳ":{"ha":1076,"x_min":0,"x_max":0,"o":"m 278 694 l 278 833 l 139 833 l 139 694 z m 278 694 l 278 556 l 417 556 l 417 694 z m 139 833 l 139 972 l 0 972 l 0 833 z m 417 556 l 417 0 l 556 0 l 556 556 z m 833 972 l 833 833 l 972 833 l 972 972 z m 556 694 l 556 556 l 694 556 l 694 694 z m 694 833 l 694 694 l 833 694 l 833 833 z m 278 1389 l 278 1528 l 139 1528 l 139 1389 z m 278 1389 l 278 1250 l 417 1250 l 417 1389 z m 417 1250 l 417 1111 l 556 1111 l 556 1250 z "},"Z":{"ha":1076,"x_min":0,"x_max":0,"o":"m 0 972 l 0 833 l 694 833 l 694 694 l 833 694 l 833 833 l 972 833 l 972 972 z m 417 556 l 417 417 l 556 417 l 556 556 z m 278 417 l 278 278 l 417 278 l 417 417 z m 139 278 l 139 139 l 0 139 l 0 0 l 972 0 l 972 139 l 278 139 l 278 278 z m 556 694 l 556 556 l 694 556 l 694 694 z "},"Ž":{"ha":1076,"x_min":0,"x_max":0,"o":"m 0 972 l 0 833 l 694 833 l 694 694 l 833 694 l 833 833 l 972 833 l 972 972 z m 417 556 l 417 417 l 556 417 l 556 556 z m 278 417 l 278 278 l 417 278 l 417 417 z m 139 278 l 139 139 l 0 139 l 0 0 l 972 0 l 972 139 l 278 139 l 278 278 z m 556 694 l 556 556 l 694 556 l 694 694 z m 347 1389 l 347 1250 l 486 1250 l 486 1389 z m 486 1250 l 486 1111 l 625 1111 l 625 1250 z m 625 1389 l 625 1250 l 764 1250 l 764 1389 z "},"a":{"ha":1215,"x_min":0,"x_max":0,"o":"m 139 556 l 139 417 l 278 417 l 278 556 z m 556 139 l 139 139 l 139 0 l 556 0 z m 694 556 l 694 694 l 278 694 l 278 556 z m 694 556 l 694 278 l 833 278 l 833 417 l 972 417 l 972 556 z m 0 417 l 0 139 l 139 139 l 139 417 z m 694 139 l 694 278 l 556 278 l 556 139 z m 694 139 l 694 0 l 972 0 l 972 139 z m 972 278 l 972 139 l 1111 139 l 1111 278 z m 972 694 l 972 556 l 1111 556 l 1111 694 z "},"á":{"ha":1215,"x_min":0,"x_max":0,"o":"m 139 556 l 139 417 l 278 417 l 278 556 z m 556 139 l 139 139 l 139 0 l 556 0 z m 694 556 l 694 694 l 278 694 l 278 556 z m 694 556 l 694 278 l 833 278 l 833 417 l 972 417 l 972 556 z m 0 417 l 0 139 l 139 139 l 139 417 z m 694 139 l 694 278 l 556 278 l 556 139 z m 694 139 l 694 0 l 972 0 l 972 139 z m 972 278 l 972 139 l 1111 139 l 1111 278 z m 972 694 l 972 556 l 1111 556 l 1111 694 z m 486 972 l 486 833 l 625 833 l 625 972 z m 625 1111 l 625 972 l 764 972 l 764 1111 z m 764 1250 l 764 1111 l 903 1111 l 903 1250 z "},"ă":{"ha":1215,"x_min":0,"x_max":0,"o":"m 139 556 l 139 417 l 278 417 l 278 556 z m 556 139 l 139 139 l 139 0 l 556 0 z m 694 556 l 694 694 l 278 694 l 278 556 z m 694 556 l 694 278 l 833 278 l 833 417 l 972 417 l 972 556 z m 0 417 l 0 139 l 139 139 l 139 417 z m 694 139 l 694 278 l 556 278 l 556 139 z m 694 139 l 694 0 l 972 0 l 972 139 z m 972 278 l 972 139 l 1111 139 l 1111 278 z m 972 694 l 972 556 l 1111 556 l 1111 694 z m 417 972 l 417 1111 l 278 1111 l 278 972 z m 417 972 l 417 833 l 694 833 l 694 972 z m 694 1111 l 694 972 l 833 972 l 833 1111 z "},"â":{"ha":1215,"x_min":0,"x_max":0,"o":"m 139 556 l 139 417 l 278 417 l 278 556 z m 556 139 l 139 139 l 139 0 l 556 0 z m 694 556 l 694 694 l 278 694 l 278 556 z m 694 556 l 694 278 l 833 278 l 833 417 l 972 417 l 972 556 z m 0 417 l 0 139 l 139 139 l 139 417 z m 694 139 l 694 278 l 556 278 l 556 139 z m 694 139 l 694 0 l 972 0 l 972 139 z m 972 278 l 972 139 l 1111 139 l 1111 278 z m 972 694 l 972 556 l 1111 556 l 1111 694 z m 486 1111 l 486 972 l 625 972 l 625 1111 z m 347 972 l 347 833 l 486 833 l 486 972 z m 625 972 l 625 833 l 764 833 l 764 972 z "},"ä":{"ha":1215,"x_min":0,"x_max":0,"o":"m 139 556 l 139 417 l 278 417 l 278 556 z m 556 139 l 139 139 l 139 0 l 556 0 z m 694 556 l 694 694 l 278 694 l 278 556 z m 694 556 l 694 278 l 833 278 l 833 417 l 972 417 l 972 556 z m 0 417 l 0 139 l 139 139 l 139 417 z m 694 139 l 694 278 l 556 278 l 556 139 z m 694 139 l 694 0 l 972 0 l 972 139 z m 972 278 l 972 139 l 1111 139 l 1111 278 z m 972 694 l 972 556 l 1111 556 l 1111 694 z m 347 1111 l 347 972 l 486 972 l 486 1111 z m 625 1111 l 625 972 l 764 972 l 764 1111 z "},"à":{"ha":1215,"x_min":0,"x_max":0,"o":"m 139 556 l 139 417 l 278 417 l 278 556 z m 556 139 l 139 139 l 139 0 l 556 0 z m 694 556 l 694 694 l 278 694 l 278 556 z m 694 556 l 694 278 l 833 278 l 833 417 l 972 417 l 972 556 z m 0 417 l 0 139 l 139 139 l 139 417 z m 694 139 l 694 278 l 556 278 l 556 139 z m 694 139 l 694 0 l 972 0 l 972 139 z m 972 278 l 972 139 l 1111 139 l 1111 278 z m 972 694 l 972 556 l 1111 556 l 1111 694 z m 347 1111 l 347 1250 l 208 1250 l 208 1111 z m 347 1111 l 347 972 l 486 972 l 486 1111 z m 486 972 l 486 833 l 625 833 l 625 972 z "},"å":{"ha":1215,"x_min":0,"x_max":0,"o":"m 139 556 l 139 417 l 278 417 l 278 556 z m 556 139 l 139 139 l 139 0 l 556 0 z m 694 556 l 694 694 l 278 694 l 278 556 z m 694 556 l 694 278 l 833 278 l 833 417 l 972 417 l 972 556 z m 0 417 l 0 139 l 139 139 l 139 417 z m 694 139 l 694 278 l 556 278 l 556 139 z m 694 139 l 694 0 l 972 0 l 972 139 z m 972 278 l 972 139 l 1111 139 l 1111 278 z m 972 694 l 972 556 l 1111 556 l 1111 694 z m 486 1250 l 486 1111 l 625 1111 l 625 1250 z m 347 1111 l 347 972 l 486 972 l 486 1111 z m 625 1111 l 625 972 l 764 972 l 764 1111 z m 486 972 l 486 833 l 625 833 l 625 972 z "},"ã":{"ha":1215,"x_min":0,"x_max":0,"o":"m 139 556 l 139 417 l 278 417 l 278 556 z m 556 139 l 139 139 l 139 0 l 556 0 z m 694 556 l 694 694 l 278 694 l 278 556 z m 694 556 l 694 278 l 833 278 l 833 417 l 972 417 l 972 556 z m 0 417 l 0 139 l 139 139 l 139 417 z m 694 139 l 694 278 l 556 278 l 556 139 z m 694 139 l 694 0 l 972 0 l 972 139 z m 972 278 l 972 139 l 1111 139 l 1111 278 z m 972 694 l 972 556 l 1111 556 l 1111 694 z m 347 1250 l 347 1111 l 486 1111 l 486 1250 z m 486 1111 l 486 972 l 625 972 l 625 1111 z m 208 1111 l 208 833 l 347 833 l 347 1111 z m 625 972 l 625 833 l 764 833 l 764 972 z m 764 1250 l 764 972 l 903 972 l 903 1250 z "},"b":{"ha":1215,"x_min":0,"x_max":0,"o":"m 417 556 l 417 417 l 556 417 l 556 556 z m 833 139 l 417 139 l 417 0 l 833 0 z m 972 556 l 972 278 l 1111 278 l 1111 556 z m 556 694 l 556 556 l 972 556 l 972 694 l 833 694 l 833 833 l 694 833 l 694 694 z m 278 278 l 139 278 l 139 139 l 417 139 l 417 417 l 278 417 z m 833 972 l 833 833 l 972 833 l 972 972 z m 0 139 l 0 0 l 139 0 l 139 139 z m 833 278 l 833 139 l 972 139 l 972 278 z "},"c":{"ha":938,"x_min":0,"x_max":0,"o":"m 694 694 l 278 694 l 278 556 l 694 556 z m 0 417 l 0 139 l 139 139 l 139 417 z m 556 139 l 139 139 l 139 0 l 556 0 z m 139 556 l 139 417 l 278 417 l 278 556 z m 694 556 l 694 417 l 833 417 l 833 556 z m 556 278 l 556 139 l 694 139 l 694 278 z "},"ć":{"ha":938,"x_min":0,"x_max":0,"o":"m 694 694 l 278 694 l 278 556 l 694 556 z m 0 417 l 0 139 l 139 139 l 139 417 z m 556 139 l 139 139 l 139 0 l 556 0 z m 139 556 l 139 417 l 278 417 l 278 556 z m 694 556 l 694 417 l 833 417 l 833 556 z m 556 278 l 556 139 l 694 139 l 694 278 z m 294 972 l 294 833 l 433 833 l 433 972 z m 433 1111 l 433 972 l 572 972 l 572 1111 z m 572 1250 l 572 1111 l 711 1111 l 711 1250 z "},"č":{"ha":938,"x_min":0,"x_max":0,"o":"m 694 694 l 278 694 l 278 556 l 694 556 z m 0 417 l 0 139 l 139 139 l 139 417 z m 556 139 l 139 139 l 139 0 l 556 0 z m 139 556 l 139 417 l 278 417 l 278 556 z m 694 556 l 694 417 l 833 417 l 833 556 z m 556 278 l 556 139 l 694 139 l 694 278 z m 225 1111 l 225 972 l 364 972 l 364 1111 z m 364 972 l 364 833 l 503 833 l 503 972 z m 503 1111 l 503 972 l 642 972 l 642 1111 z "},"ç":{"ha":938,"x_min":0,"x_max":0,"o":"m 694 694 l 278 694 l 278 556 l 694 556 z m 0 417 l 0 139 l 139 139 l 139 417 z m 556 139 l 139 139 l 139 0 l 415 0 l 415 -139 l 554 -139 l 554 0 l 693 0 l 693 139 l 694 139 l 694 278 l 556 278 z m 139 556 l 139 417 l 278 417 l 278 556 z m 694 556 l 694 417 l 833 417 l 833 556 z m 554 -139 l 554 -278 l 693 -278 l 693 -139 z m 276 -278 l 276 -139 l 138 -139 l 138 -278 z m 276 -278 l 276 -417 l 554 -417 l 554 -278 z "},"ċ":{"ha":938,"x_min":0,"x_max":0,"o":"m 694 694 l 278 694 l 278 556 l 694 556 z m 0 417 l 0 139 l 139 139 l 139 417 z m 556 139 l 139 139 l 139 0 l 556 0 z m 139 556 l 139 417 l 278 417 l 278 556 z m 694 556 l 694 417 l 833 417 l 833 556 z m 556 278 l 556 139 l 694 139 l 694 278 z m 364 1111 l 364 972 l 503 972 l 503 1111 z "},"d":{"ha":1493,"x_min":0,"x_max":0,"o":"m 278 694 l 278 556 l 694 556 l 694 694 z m 556 139 l 139 139 l 139 0 l 556 0 z m 694 556 l 694 278 l 833 278 l 833 417 l 972 417 l 972 556 z m 0 417 l 0 139 l 139 139 l 139 417 z m 556 278 l 556 139 l 694 139 l 694 278 z m 972 694 l 972 556 l 1111 556 l 1111 694 z m 1111 833 l 1111 694 l 1250 694 l 1250 833 z m 1250 972 l 1250 833 l 1389 833 l 1389 972 z m 694 139 l 694 0 l 972 0 l 972 139 z m 972 278 l 972 139 l 1111 139 l 1111 278 z m 139 556 l 139 417 l 278 417 l 278 556 z "},"ð":{"ha":1354,"x_min":0,"x_max":0,"o":"m 278 694 l 278 556 l 694 556 l 694 694 z m 556 139 l 139 139 l 139 0 l 556 0 z m 694 556 l 694 278 l 833 278 l 833 417 l 972 417 l 972 556 z m 0 417 l 0 139 l 139 139 l 139 417 z m 556 278 l 556 139 l 694 139 l 694 278 z m 972 694 l 972 833 l 833 833 l 833 694 z m 972 694 l 972 556 l 1111 556 l 1111 694 z m 1111 972 l 1111 694 l 1250 694 l 1250 972 z m 139 556 l 139 417 l 278 417 l 278 556 z m 1111 556 l 1111 417 l 1250 417 l 1250 556 z "},"e":{"ha":938,"x_min":0,"x_max":0,"o":"m 694 556 l 694 694 l 278 694 l 278 556 l 139 556 l 139 417 l 417 417 l 417 556 z m 694 556 l 694 417 l 833 417 l 833 556 z m 0 417 l 0 139 l 139 139 l 139 417 z m 139 139 l 139 0 l 694 0 l 694 139 z m 417 417 l 417 278 l 694 278 l 694 417 z "},"é":{"ha":938,"x_min":0,"x_max":0,"o":"m 694 556 l 694 694 l 278 694 l 278 556 l 139 556 l 139 417 l 417 417 l 417 556 z m 694 556 l 694 417 l 833 417 l 833 556 z m 0 417 l 0 139 l 139 139 l 139 417 z m 139 139 l 139 0 l 694 0 l 694 139 z m 417 417 l 417 278 l 694 278 l 694 417 z m 347 972 l 347 833 l 486 833 l 486 972 z m 486 1111 l 486 972 l 625 972 l 625 1111 z m 625 1250 l 625 1111 l 764 1111 l 764 1250 z "},"ě":{"ha":938,"x_min":0,"x_max":0,"o":"m 694 556 l 694 694 l 278 694 l 278 556 l 139 556 l 139 417 l 417 417 l 417 556 z m 694 556 l 694 417 l 833 417 l 833 556 z m 0 417 l 0 139 l 139 139 l 139 417 z m 139 139 l 139 0 l 694 0 l 694 139 z m 417 417 l 417 278 l 694 278 l 694 417 z m 278 1111 l 278 972 l 417 972 l 417 1111 z m 417 972 l 417 833 l 556 833 l 556 972 z m 556 1111 l 556 972 l 694 972 l 694 1111 z "},"ê":{"ha":938,"x_min":0,"x_max":0,"o":"m 694 556 l 694 694 l 278 694 l 278 556 l 139 556 l 139 417 l 417 417 l 417 556 z m 694 556 l 694 417 l 833 417 l 833 556 z m 0 417 l 0 139 l 139 139 l 139 417 z m 139 139 l 139 0 l 694 0 l 694 139 z m 417 417 l 417 278 l 694 278 l 694 417 z m 347 1111 l 347 972 l 486 972 l 486 1111 z m 208 972 l 208 833 l 347 833 l 347 972 z m 486 972 l 486 833 l 625 833 l 625 972 z "},"ë":{"ha":938,"x_min":0,"x_max":0,"o":"m 694 556 l 694 694 l 278 694 l 278 556 l 139 556 l 139 417 l 417 417 l 417 556 z m 694 556 l 694 417 l 833 417 l 833 556 z m 0 417 l 0 139 l 139 139 l 139 417 z m 139 139 l 139 0 l 694 0 l 694 139 z m 417 417 l 417 278 l 694 278 l 694 417 z m 208 1111 l 208 972 l 347 972 l 347 1111 z m 486 1111 l 486 972 l 625 972 l 625 1111 z "},"ė":{"ha":938,"x_min":0,"x_max":0,"o":"m 694 556 l 694 694 l 278 694 l 278 556 l 139 556 l 139 417 l 417 417 l 417 556 z m 694 556 l 694 417 l 833 417 l 833 556 z m 0 417 l 0 139 l 139 139 l 139 417 z m 139 139 l 139 0 l 694 0 l 694 139 z m 417 417 l 417 278 l 694 278 l 694 417 z m 417 1111 l 417 972 l 556 972 l 556 1111 z "},"è":{"ha":938,"x_min":0,"x_max":0,"o":"m 694 556 l 694 694 l 278 694 l 278 556 l 139 556 l 139 417 l 417 417 l 417 556 z m 694 556 l 694 417 l 833 417 l 833 556 z m 0 417 l 0 139 l 139 139 l 139 417 z m 139 139 l 139 0 l 694 0 l 694 139 z m 417 417 l 417 278 l 694 278 l 694 417 z m 208 1111 l 208 1250 l 69 1250 l 69 1111 z m 208 1111 l 208 972 l 347 972 l 347 1111 z m 347 972 l 347 833 l 486 833 l 486 972 z "},"ē":{"ha":938,"x_min":0,"x_max":0,"o":"m 694 556 l 694 694 l 278 694 l 278 556 l 139 556 l 139 417 l 417 417 l 417 556 z m 694 556 l 694 417 l 833 417 l 833 556 z m 0 417 l 0 139 l 139 139 l 139 417 z m 139 139 l 139 0 l 694 0 l 694 139 z m 417 417 l 417 278 l 694 278 l 694 417 z m 625 1111 l 208 1111 l 208 972 l 625 972 z "},"f":{"ha":1354,"x_min":0,"x_max":0,"o":"m 694 833 l 694 694 l 139 694 l 139 556 l 417 556 l 417 417 l 556 417 l 556 556 l 972 556 l 972 694 l 833 694 l 833 833 z m 278 417 l 278 278 l 417 278 l 417 417 z m 139 278 l 139 139 l 278 139 l 278 278 z m 1111 833 l 1111 972 l 833 972 l 833 833 z m 1111 833 l 1111 694 l 1250 694 l 1250 833 z m 0 139 l 0 0 l 139 0 l 139 139 z "},"g":{"ha":1632,"x_min":0,"x_max":0,"o":"m 417 556 l 417 417 l 556 417 l 556 556 z m 833 139 l 417 139 l 417 0 l 556 0 l 556 -139 l 694 -139 l 694 0 l 833 0 z m 972 556 l 972 278 l 1111 278 l 1111 417 l 1250 417 l 1250 556 z m 556 694 l 556 556 l 972 556 l 972 694 z m 278 417 l 278 139 l 417 139 l 417 417 z m 833 278 l 833 139 l 972 139 l 972 278 z m 1250 694 l 1250 556 l 1528 556 l 1528 694 z m 556 -139 l 139 -139 l 139 -278 l 556 -278 z m 139 -139 l 139 0 l 0 0 l 0 -139 z "},"ǧ":{"ha":1632,"x_min":0,"x_max":0,"o":"m 417 556 l 417 417 l 556 417 l 556 556 z m 833 139 l 417 139 l 417 0 l 556 0 l 556 -139 l 694 -139 l 694 0 l 833 0 z m 972 556 l 972 278 l 1111 278 l 1111 417 l 1250 417 l 1250 556 z m 556 694 l 556 556 l 972 556 l 972 694 z m 278 417 l 278 139 l 417 139 l 417 417 z m 833 278 l 833 139 l 972 139 l 972 278 z m 1250 694 l 1250 556 l 1528 556 l 1528 694 z m 556 -139 l 139 -139 l 139 -278 l 556 -278 z m 139 -139 l 139 0 l 0 0 l 0 -139 z m 625 1111 l 625 972 l 764 972 l 764 1111 z m 764 972 l 764 833 l 903 833 l 903 972 z m 903 1111 l 903 972 l 1042 972 l 1042 1111 z "},"h":{"ha":1493,"x_min":0,"x_max":0,"o":"m 694 833 l 694 694 l 833 694 l 833 833 z m 556 694 l 556 556 l 694 556 l 694 694 z m 417 556 l 417 417 l 556 417 l 556 556 z m 278 417 l 278 278 l 417 278 l 417 417 z m 139 278 l 139 139 l 278 139 l 278 278 z m 0 139 l 0 0 l 139 0 l 139 139 z m 694 556 l 694 417 l 833 417 l 833 556 z m 1111 694 l 833 694 l 833 556 l 1111 556 z m 1111 556 l 1111 417 l 1250 417 l 1250 556 z m 972 417 l 972 278 l 1111 278 l 1111 417 z m 833 278 l 833 139 l 972 139 l 972 278 z m 833 972 l 833 833 l 972 833 l 972 972 z m 1250 139 l 972 139 l 972 0 l 1250 0 z m 1250 278 l 1250 139 l 1389 139 l 1389 278 z "},"i":{"ha":660,"x_min":0,"x_max":0,"o":"m 278 556 l 278 694 l 139 694 l 139 556 z m 278 556 l 278 417 l 417 417 l 417 556 z m 139 417 l 139 278 l 278 278 l 278 417 z m 139 139 l 139 278 l 0 278 l 0 139 z m 139 139 l 139 0 l 278 0 l 278 139 z m 417 972 l 417 833 l 556 833 l 556 972 z "},"ı":{"ha":243,"x_min":0,"x_max":0,"o":"m 0 694 l 0 0 l 139 0 l 139 694 z "},"í":{"ha":243,"x_min":0,"x_max":0,"o":"m 0 694 l 0 0 l 139 0 l 139 694 z m 0 972 l 0 833 l 139 833 l 139 972 z m 139 1111 l 139 972 l 278 972 l 278 1111 z m 278 1250 l 278 1111 l 417 1111 l 417 1250 z "},"î":{"ha":243,"x_min":0,"x_max":0,"o":"m 0 694 l 0 0 l 139 0 l 139 694 z m 0 1111 l 0 972 l 139 972 l 139 1111 z m -139 972 l -139 833 l 0 833 l 0 972 z m 139 972 l 139 833 l 278 833 l 278 972 z "},"ï":{"ha":243,"x_min":0,"x_max":0,"o":"m 0 694 l 0 0 l 139 0 l 139 694 z m -139 1111 l -139 972 l 0 972 l 0 1111 z m 139 1111 l 139 972 l 278 972 l 278 1111 z "},"ì":{"ha":243,"x_min":0,"x_max":0,"o":"m 0 694 l 0 0 l 139 0 l 139 694 z m -139 1111 l -139 1250 l -278 1250 l -278 1111 z m -139 1111 l -139 972 l 0 972 l 0 1111 z m 0 972 l 0 833 l 139 833 l 139 972 z "},"ī":{"ha":243,"x_min":0,"x_max":0,"o":"m 0 694 l 0 0 l 139 0 l 139 694 z m 278 1111 l -139 1111 l -139 972 l 278 972 z "},"ĳ":{"ha":2014,"x_min":0,"x_max":0,"o":"m 278 556 l 278 694 l 139 694 l 139 556 z m 278 556 l 278 417 l 417 417 l 417 556 z m 139 417 l 139 278 l 278 278 l 278 417 z m 139 139 l 139 278 l 0 278 l 0 139 z m 139 139 l 139 0 l 278 0 l 278 139 z m 417 972 l 417 833 l 556 833 l 556 972 z m 1771 972 l 1771 833 l 1910 833 l 1910 972 z m 1632 694 l 1076 694 l 1076 556 l 1354 556 l 1354 417 l 1493 417 l 1493 556 l 1632 556 z m 1215 417 l 1215 278 l 1354 278 l 1354 417 z m 1076 278 l 1076 139 l 1215 139 l 1215 278 z m 938 139 l 938 0 l 1076 0 l 1076 139 z m 799 -139 l 521 -139 l 521 -278 l 799 -278 z m 382 0 l 382 -139 l 521 -139 l 521 0 z m 799 0 l 799 -139 l 938 -139 l 938 0 z "},"j":{"ha":1632,"x_min":0,"x_max":0,"o":"m 1389 972 l 1389 833 l 1528 833 l 1528 972 z m 1250 694 l 694 694 l 694 556 l 972 556 l 972 417 l 1111 417 l 1111 556 l 1250 556 z m 833 417 l 833 278 l 972 278 l 972 417 z m 694 278 l 694 139 l 833 139 l 833 278 z m 556 139 l 556 0 l 694 0 l 694 139 z m 417 -139 l 139 -139 l 139 -278 l 417 -278 z m 0 0 l 0 -139 l 139 -139 l 139 0 z m 417 0 l 417 -139 l 556 -139 l 556 0 z "},"ȷ":{"ha":660,"x_min":0,"x_max":0,"o":"m 417 694 l 417 -139 l 556 -139 l 556 694 z m 417 -139 l 0 -139 l 0 -278 l 417 -278 z "},"k":{"ha":1493,"x_min":0,"x_max":0,"o":"m 139 278 l 139 139 l 278 139 l 278 278 z m 278 417 l 278 278 l 417 278 l 417 417 z m 417 556 l 417 417 l 556 417 l 556 556 z m 556 694 l 556 556 l 694 556 l 694 694 z m 694 833 l 694 694 l 833 694 l 833 833 z m 833 972 l 833 833 l 972 833 l 972 972 z m 0 139 l 0 0 l 139 0 l 139 139 z m 556 417 l 556 278 l 694 278 l 694 139 l 833 139 l 833 417 z m 833 139 l 833 0 l 972 0 l 972 139 z m 1111 556 l 833 556 l 833 417 l 1111 417 z m 1111 694 l 1111 556 l 1389 556 l 1389 694 z "},"ǩ":{"ha":1493,"x_min":0,"x_max":0,"o":"m 139 278 l 139 139 l 278 139 l 278 278 z m 278 417 l 278 278 l 417 278 l 417 417 z m 417 556 l 417 417 l 556 417 l 556 556 z m 556 694 l 556 556 l 694 556 l 694 694 z m 694 833 l 694 694 l 833 694 l 833 833 z m 833 972 l 833 833 l 972 833 l 972 972 z m 0 139 l 0 0 l 139 0 l 139 139 z m 556 417 l 556 278 l 694 278 l 694 139 l 833 139 l 833 417 z m 833 139 l 833 0 l 972 0 l 972 139 z m 1111 556 l 833 556 l 833 417 l 1111 417 z m 1111 694 l 1111 556 l 1389 556 l 1389 694 z m 625 1528 l 625 1389 l 764 1389 l 764 1528 z m 764 1389 l 764 1250 l 903 1250 l 903 1389 z m 903 1528 l 903 1389 l 1042 1389 l 1042 1528 z "},"l":{"ha":799,"x_min":0,"x_max":0,"o":"m 556 972 l 556 833 l 694 833 l 694 972 z m 278 694 l 278 556 l 417 556 l 417 694 z m 139 556 l 139 417 l 278 417 l 278 556 z m 0 417 l 0 139 l 139 139 l 139 417 z m 417 833 l 417 694 l 556 694 l 556 833 z m 139 139 l 139 0 l 417 0 l 417 139 z m 417 278 l 417 139 l 556 139 l 556 278 z "},"m":{"ha":1771,"x_min":0,"x_max":0,"o":"m 417 556 l 417 694 l 139 694 l 139 556 z m 417 556 l 417 417 l 556 417 l 556 556 z m 278 417 l 278 278 l 417 278 l 417 417 z m 139 278 l 139 139 l 278 139 l 278 278 z m 0 139 l 0 0 l 139 0 l 139 139 z m 833 694 l 556 694 l 556 556 l 833 556 z m 833 556 l 833 278 l 972 278 l 972 556 z m 694 278 l 694 139 l 833 139 l 833 278 z m 1111 278 l 1111 139 l 1250 139 l 1250 278 z m 0 556 l 0 417 l 139 417 l 139 556 z m 972 694 l 972 556 l 1250 556 l 1250 694 z m 1250 556 l 1250 278 l 1389 278 l 1389 556 z m 1250 139 l 1250 0 l 1528 0 l 1528 139 z m 1528 278 l 1528 139 l 1667 139 l 1667 278 z m 556 139 l 556 0 l 694 0 l 694 139 z "},"n":{"ha":1354,"x_min":0,"x_max":0,"o":"m 417 556 l 417 694 l 139 694 l 139 556 z m 417 556 l 417 417 l 556 417 l 556 556 z m 278 417 l 278 278 l 417 278 l 417 417 z m 139 278 l 139 139 l 278 139 l 278 278 z m 0 139 l 0 0 l 139 0 l 139 139 z m 833 694 l 556 694 l 556 556 l 833 556 z m 833 556 l 833 278 l 972 278 l 972 556 z m 694 278 l 694 139 l 833 139 l 833 278 z m 833 139 l 833 0 l 1111 0 l 1111 139 z m 0 556 l 0 417 l 139 417 l 139 556 z m 1111 278 l 1111 139 l 1250 139 l 1250 278 z "},"ń":{"ha":1354,"x_min":0,"x_max":0,"o":"m 417 556 l 417 694 l 139 694 l 139 556 z m 417 556 l 417 417 l 556 417 l 556 556 z m 278 417 l 278 278 l 417 278 l 417 417 z m 139 278 l 139 139 l 278 139 l 278 278 z m 0 139 l 0 0 l 139 0 l 139 139 z m 833 694 l 556 694 l 556 556 l 833 556 z m 833 556 l 833 278 l 972 278 l 972 556 z m 694 278 l 694 139 l 833 139 l 833 278 z m 833 139 l 833 0 l 1111 0 l 1111 139 z m 0 556 l 0 417 l 139 417 l 139 556 z m 1111 278 l 1111 139 l 1250 139 l 1250 278 z m 556 972 l 556 833 l 694 833 l 694 972 z m 694 1111 l 694 972 l 833 972 l 833 1111 z m 833 1250 l 833 1111 l 972 1111 l 972 1250 z "},"ň":{"ha":1354,"x_min":0,"x_max":0,"o":"m 417 556 l 417 694 l 139 694 l 139 556 z m 417 556 l 417 417 l 556 417 l 556 556 z m 278 417 l 278 278 l 417 278 l 417 417 z m 139 278 l 139 139 l 278 139 l 278 278 z m 0 139 l 0 0 l 139 0 l 139 139 z m 833 694 l 556 694 l 556 556 l 833 556 z m 833 556 l 833 278 l 972 278 l 972 556 z m 694 278 l 694 139 l 833 139 l 833 278 z m 833 139 l 833 0 l 1111 0 l 1111 139 z m 0 556 l 0 417 l 139 417 l 139 556 z m 1111 278 l 1111 139 l 1250 139 l 1250 278 z m 486 1111 l 486 972 l 625 972 l 625 1111 z m 625 972 l 625 833 l 764 833 l 764 972 z m 764 1111 l 764 972 l 903 972 l 903 1111 z "},"ñ":{"ha":1354,"x_min":0,"x_max":0,"o":"m 417 556 l 417 694 l 139 694 l 139 556 z m 417 556 l 417 417 l 556 417 l 556 556 z m 278 417 l 278 278 l 417 278 l 417 417 z m 139 278 l 139 139 l 278 139 l 278 278 z m 0 139 l 0 0 l 139 0 l 139 139 z m 833 694 l 556 694 l 556 556 l 833 556 z m 833 556 l 833 278 l 972 278 l 972 556 z m 694 278 l 694 139 l 833 139 l 833 278 z m 833 139 l 833 0 l 1111 0 l 1111 139 z m 0 556 l 0 417 l 139 417 l 139 556 z m 1111 278 l 1111 139 l 1250 139 l 1250 278 z m 417 1250 l 417 1111 l 556 1111 l 556 1250 z m 556 1111 l 556 972 l 694 972 l 694 1111 z m 278 1111 l 278 833 l 417 833 l 417 1111 z m 694 972 l 694 833 l 833 833 l 833 972 z m 833 1250 l 833 972 l 972 972 l 972 1250 z "},"o":{"ha":938,"x_min":0,"x_max":0,"o":"m 139 556 l 139 417 l 278 417 l 278 556 z m 556 139 l 139 139 l 139 0 l 556 0 z m 694 556 l 694 278 l 833 278 l 833 556 z m 278 694 l 278 556 l 694 556 l 694 694 z m 0 417 l 0 139 l 139 139 l 139 417 z m 556 278 l 556 139 l 694 139 l 694 278 z "},"ó":{"ha":938,"x_min":0,"x_max":0,"o":"m 139 556 l 139 417 l 278 417 l 278 556 z m 556 139 l 139 139 l 139 0 l 556 0 z m 694 556 l 694 278 l 833 278 l 833 556 z m 278 694 l 278 556 l 694 556 l 694 694 z m 0 417 l 0 139 l 139 139 l 139 417 z m 556 278 l 556 139 l 694 139 l 694 278 z m 347 972 l 347 833 l 486 833 l 486 972 z m 486 1111 l 486 972 l 625 972 l 625 1111 z m 625 1250 l 625 1111 l 764 1111 l 764 1250 z "},"ô":{"ha":938,"x_min":0,"x_max":0,"o":"m 139 556 l 139 417 l 278 417 l 278 556 z m 556 139 l 139 139 l 139 0 l 556 0 z m 694 556 l 694 278 l 833 278 l 833 556 z m 278 694 l 278 556 l 694 556 l 694 694 z m 0 417 l 0 139 l 139 139 l 139 417 z m 556 278 l 556 139 l 694 139 l 694 278 z m 347 1111 l 347 972 l 486 972 l 486 1111 z m 208 972 l 208 833 l 347 833 l 347 972 z m 486 972 l 486 833 l 625 833 l 625 972 z "},"ö":{"ha":938,"x_min":0,"x_max":0,"o":"m 139 556 l 139 417 l 278 417 l 278 556 z m 556 139 l 139 139 l 139 0 l 556 0 z m 694 556 l 694 278 l 833 278 l 833 556 z m 278 694 l 278 556 l 694 556 l 694 694 z m 0 417 l 0 139 l 139 139 l 139 417 z m 556 278 l 556 139 l 694 139 l 694 278 z m 208 1111 l 208 972 l 347 972 l 347 1111 z m 486 1111 l 486 972 l 625 972 l 625 1111 z "},"ò":{"ha":938,"x_min":0,"x_max":0,"o":"m 139 556 l 139 417 l 278 417 l 278 556 z m 556 139 l 139 139 l 139 0 l 556 0 z m 694 556 l 694 278 l 833 278 l 833 556 z m 278 694 l 278 556 l 694 556 l 694 694 z m 0 417 l 0 139 l 139 139 l 139 417 z m 556 278 l 556 139 l 694 139 l 694 278 z m 208 1111 l 208 1250 l 69 1250 l 69 1111 z m 208 1111 l 208 972 l 347 972 l 347 1111 z m 347 972 l 347 833 l 486 833 l 486 972 z "},"ō":{"ha":938,"x_min":0,"x_max":0,"o":"m 139 556 l 139 417 l 278 417 l 278 556 z m 556 139 l 139 139 l 139 0 l 556 0 z m 694 556 l 694 278 l 833 278 l 833 556 z m 278 694 l 278 556 l 694 556 l 694 694 z m 0 417 l 0 139 l 139 139 l 139 417 z m 556 278 l 556 139 l 694 139 l 694 278 z m 625 1111 l 208 1111 l 208 972 l 625 972 z "},"ø":{"ha":1076,"x_min":0,"x_max":0,"o":"m 694 694 l 278 694 l 278 556 l 417 556 l 417 417 l 556 417 l 556 556 l 694 556 z m 139 556 l 139 417 l 278 417 l 278 556 z m 694 556 l 694 417 l 833 417 l 833 556 z m 833 417 l 833 278 l 972 278 l 972 417 z m 0 417 l 0 278 l 139 278 l 139 417 z m 139 278 l 139 139 l 278 139 l 278 278 z m 278 417 l 278 278 l 417 278 l 417 417 z m 694 833 l 694 694 l 833 694 l 833 833 z m 278 139 l 278 0 l 694 0 l 694 139 z m 694 278 l 694 139 l 833 139 l 833 278 z m 0 139 l 0 0 l 139 0 l 139 139 z "},"õ":{"ha":938,"x_min":0,"x_max":0,"o":"m 139 556 l 139 417 l 278 417 l 278 556 z m 556 139 l 139 139 l 139 0 l 556 0 z m 694 556 l 694 278 l 833 278 l 833 556 z m 278 694 l 278 556 l 694 556 l 694 694 z m 0 417 l 0 139 l 139 139 l 139 417 z m 556 278 l 556 139 l 694 139 l 694 278 z m 208 1250 l 208 1111 l 347 1111 l 347 1250 z m 347 1111 l 347 972 l 486 972 l 486 1111 z m 69 1111 l 69 833 l 208 833 l 208 1111 z m 486 972 l 486 833 l 625 833 l 625 972 z m 625 1250 l 625 972 l 764 972 l 764 1250 z "},"œ":{"ha":1632,"x_min":0,"x_max":0,"o":"m 139 556 l 139 417 l 278 417 l 278 556 z m 556 139 l 139 139 l 139 0 l 556 0 z m 694 556 l 694 278 l 556 278 l 556 139 l 833 139 l 833 417 l 1111 417 l 1111 556 l 1389 556 l 1389 694 l 972 694 l 972 556 z m 278 694 l 278 556 l 694 556 l 694 694 z m 0 417 l 0 139 l 139 139 l 139 417 z m 1389 556 l 1389 417 l 1528 417 l 1528 556 z m 833 139 l 833 0 l 1389 0 l 1389 139 z m 1111 417 l 1111 278 l 1389 278 l 1389 417 z "},"p":{"ha":1493,"x_min":0,"x_max":0,"o":"m 694 556 l 694 694 l 556 694 l 556 556 z m 694 556 l 694 417 l 833 417 l 833 556 z m 1111 139 l 694 139 l 694 0 l 1111 0 z m 1250 556 l 1250 694 l 833 694 l 833 556 z m 1250 556 l 1250 278 l 1389 278 l 1389 556 z m 556 278 l 417 278 l 417 139 l 694 139 l 694 417 l 556 417 z m 278 139 l 278 0 l 417 0 l 417 139 z m 139 0 l 139 -139 l 278 -139 l 278 0 z m 0 -139 l 0 -278 l 139 -278 l 139 -139 z m 1111 278 l 1111 139 l 1250 139 l 1250 278 z "},"þ":{"ha":938,"x_min":0,"x_max":0,"o":"m 0 972 l 0 -278 l 139 -278 l 139 0 l 694 0 l 694 139 l 139 139 l 139 556 l 694 556 l 694 694 l 139 694 l 139 972 z m 694 556 l 694 139 l 833 139 l 833 556 z "},"q":{"ha":1215,"x_min":0,"x_max":0,"o":"m 139 556 l 139 417 l 278 417 l 278 556 z m 556 139 l 139 139 l 139 0 l 278 0 l 278 -139 l 417 -139 l 417 0 l 556 0 z m 694 556 l 694 278 l 833 278 l 833 417 l 972 417 l 972 556 z m 694 694 l 278 694 l 278 556 l 694 556 z m 0 417 l 0 139 l 139 139 l 139 417 z m 556 278 l 556 139 l 694 139 l 694 278 z m 139 -139 l 139 -278 l 278 -278 l 278 -139 z m 972 694 l 972 556 l 1111 556 l 1111 694 z "},"r":{"ha":1076,"x_min":0,"x_max":0,"o":"m 278 417 l 278 278 l 417 278 l 417 417 z m 139 278 l 139 139 l 278 139 l 278 278 z m 0 139 l 0 0 l 139 0 l 139 139 z m 417 556 l 417 694 l 139 694 l 139 556 z m 417 556 l 417 417 l 556 417 l 556 556 z m 556 694 l 556 556 l 833 556 l 833 694 z m 833 556 l 833 417 l 972 417 l 972 556 z m 694 417 l 694 278 l 833 278 l 833 417 z m 0 556 l 0 417 l 139 417 l 139 556 z "},"ŕ":{"ha":1076,"x_min":0,"x_max":0,"o":"m 278 417 l 278 278 l 417 278 l 417 417 z m 139 278 l 139 139 l 278 139 l 278 278 z m 0 139 l 0 0 l 139 0 l 139 139 z m 417 556 l 417 694 l 139 694 l 139 556 z m 417 556 l 417 417 l 556 417 l 556 556 z m 556 694 l 556 556 l 833 556 l 833 694 z m 833 556 l 833 417 l 972 417 l 972 556 z m 694 417 l 694 278 l 833 278 l 833 417 z m 0 556 l 0 417 l 139 417 l 139 556 z m 417 972 l 417 833 l 556 833 l 556 972 z m 556 1111 l 556 972 l 694 972 l 694 1111 z m 694 1250 l 694 1111 l 833 1111 l 833 1250 z "},"ř":{"ha":1076,"x_min":0,"x_max":0,"o":"m 278 417 l 278 278 l 417 278 l 417 417 z m 139 278 l 139 139 l 278 139 l 278 278 z m 0 139 l 0 0 l 139 0 l 139 139 z m 417 556 l 417 694 l 139 694 l 139 556 z m 417 556 l 417 417 l 556 417 l 556 556 z m 556 694 l 556 556 l 833 556 l 833 694 z m 833 556 l 833 417 l 972 417 l 972 556 z m 694 417 l 694 278 l 833 278 l 833 417 z m 0 556 l 0 417 l 139 417 l 139 556 z m 347 1111 l 347 972 l 486 972 l 486 1111 z m 486 972 l 486 833 l 625 833 l 625 972 z m 625 1111 l 625 972 l 764 972 l 764 1111 z "},"s":{"ha":1215,"x_min":0,"x_max":0,"o":"m 972 694 l 417 694 l 417 556 l 972 556 z m 278 556 l 278 417 l 417 417 l 417 556 z m 417 417 l 417 278 l 694 278 l 694 417 z m 694 278 l 694 139 l 833 139 l 833 278 z m 694 139 l 139 139 l 139 0 l 694 0 z m 139 139 l 139 278 l 0 278 l 0 139 z m 972 556 l 972 417 l 1111 417 l 1111 556 z "},"ś":{"ha":1215,"x_min":0,"x_max":0,"o":"m 972 694 l 417 694 l 417 556 l 972 556 z m 278 556 l 278 417 l 417 417 l 417 556 z m 417 417 l 417 278 l 694 278 l 694 417 z m 694 278 l 694 139 l 833 139 l 833 278 z m 694 139 l 139 139 l 139 0 l 694 0 z m 139 139 l 139 278 l 0 278 l 0 139 z m 972 556 l 972 417 l 1111 417 l 1111 556 z m 444 972 l 444 833 l 583 833 l 583 972 z m 583 1111 l 583 972 l 722 972 l 722 1111 z m 722 1250 l 722 1111 l 861 1111 l 861 1250 z "},"š":{"ha":1215,"x_min":0,"x_max":0,"o":"m 972 694 l 417 694 l 417 556 l 972 556 z m 278 556 l 278 417 l 417 417 l 417 556 z m 417 417 l 417 278 l 694 278 l 694 417 z m 694 278 l 694 139 l 833 139 l 833 278 z m 694 139 l 139 139 l 139 0 l 694 0 z m 139 139 l 139 278 l 0 278 l 0 139 z m 972 556 l 972 417 l 1111 417 l 1111 556 z m 375 1111 l 375 972 l 514 972 l 514 1111 z m 514 972 l 514 833 l 653 833 l 653 972 z m 653 1111 l 653 972 l 792 972 l 792 1111 z "},"ş":{"ha":1215,"x_min":0,"x_max":0,"o":"m 972 694 l 417 694 l 417 556 l 972 556 z m 278 556 l 278 417 l 417 417 l 417 556 z m 417 417 l 417 278 l 694 278 l 694 417 z m 694 278 l 694 139 l 704 139 l 704 0 l 843 0 l 843 139 l 833 139 l 833 278 z m 694 139 l 139 139 l 139 0 l 565 0 l 565 -139 l 704 -139 l 704 0 l 694 0 z m 139 139 l 139 278 l 0 278 l 0 139 z m 972 556 l 972 417 l 1111 417 l 1111 556 z m 704 -139 l 704 -278 l 843 -278 l 843 -139 z m 426 -278 l 426 -139 l 288 -139 l 288 -278 z m 426 -278 l 426 -417 l 704 -417 l 704 -278 z "},"ß":{"ha":938,"x_min":0,"x_max":0,"o":"m 139 972 l 139 833 l 417 833 l 417 972 z m 417 833 l 417 694 l 556 694 l 556 833 z m 278 694 l 278 556 l 417 556 l 417 694 z m 417 556 l 417 417 l 694 417 l 694 556 z m 694 417 l 694 139 l 833 139 l 833 417 z m 694 139 l 278 139 l 278 0 l 694 0 z m 0 833 l 0 0 l 139 0 l 139 833 z "},"t":{"ha":938,"x_min":0,"x_max":0,"o":"m 417 694 l 0 694 l 0 556 l 278 556 l 278 417 l 417 417 l 417 556 l 833 556 l 833 694 l 556 694 l 556 833 l 417 833 z m 139 417 l 139 139 l 278 139 l 278 417 z m 278 139 l 278 0 l 556 0 l 556 139 z m 556 278 l 556 139 l 694 139 l 694 278 z "},"u":{"ha":1215,"x_min":0,"x_max":0,"o":"m 833 556 l 833 417 l 972 417 l 972 556 z m 694 417 l 694 278 l 833 278 l 833 417 z m 556 278 l 556 139 l 694 139 l 694 278 z m 278 139 l 278 278 l 139 278 l 139 139 z m 278 139 l 278 0 l 556 0 l 556 139 z m 278 417 l 278 278 l 417 278 l 417 417 z m 417 556 l 417 694 l 139 694 l 139 556 z m 417 556 l 417 417 l 556 417 l 556 556 z m 0 556 l 0 417 l 139 417 l 139 556 z m 972 694 l 972 556 l 1111 556 l 1111 694 z m 694 139 l 694 0 l 972 0 l 972 139 z m 972 278 l 972 139 l 1111 139 l 1111 278 z "},"ú":{"ha":1215,"x_min":0,"x_max":0,"o":"m 833 556 l 833 417 l 972 417 l 972 556 z m 694 417 l 694 278 l 833 278 l 833 417 z m 556 278 l 556 139 l 694 139 l 694 278 z m 278 139 l 278 278 l 139 278 l 139 139 z m 278 139 l 278 0 l 556 0 l 556 139 z m 278 417 l 278 278 l 417 278 l 417 417 z m 417 556 l 417 694 l 139 694 l 139 556 z m 417 556 l 417 417 l 556 417 l 556 556 z m 0 556 l 0 417 l 139 417 l 139 556 z m 972 694 l 972 556 l 1111 556 l 1111 694 z m 694 139 l 694 0 l 972 0 l 972 139 z m 972 278 l 972 139 l 1111 139 l 1111 278 z m 486 972 l 486 833 l 625 833 l 625 972 z m 625 1111 l 625 972 l 764 972 l 764 1111 z m 764 1250 l 764 1111 l 903 1111 l 903 1250 z "},"û":{"ha":1215,"x_min":0,"x_max":0,"o":"m 833 556 l 833 417 l 972 417 l 972 556 z m 694 417 l 694 278 l 833 278 l 833 417 z m 556 278 l 556 139 l 694 139 l 694 278 z m 278 139 l 278 278 l 139 278 l 139 139 z m 278 139 l 278 0 l 556 0 l 556 139 z m 278 417 l 278 278 l 417 278 l 417 417 z m 417 556 l 417 694 l 139 694 l 139 556 z m 417 556 l 417 417 l 556 417 l 556 556 z m 0 556 l 0 417 l 139 417 l 139 556 z m 972 694 l 972 556 l 1111 556 l 1111 694 z m 694 139 l 694 0 l 972 0 l 972 139 z m 972 278 l 972 139 l 1111 139 l 1111 278 z m 486 1111 l 486 972 l 625 972 l 625 1111 z m 347 972 l 347 833 l 486 833 l 486 972 z m 625 972 l 625 833 l 764 833 l 764 972 z "},"ü":{"ha":1215,"x_min":0,"x_max":0,"o":"m 833 556 l 833 417 l 972 417 l 972 556 z m 694 417 l 694 278 l 833 278 l 833 417 z m 556 278 l 556 139 l 694 139 l 694 278 z m 278 139 l 278 278 l 139 278 l 139 139 z m 278 139 l 278 0 l 556 0 l 556 139 z m 278 417 l 278 278 l 417 278 l 417 417 z m 417 556 l 417 694 l 139 694 l 139 556 z m 417 556 l 417 417 l 556 417 l 556 556 z m 0 556 l 0 417 l 139 417 l 139 556 z m 972 694 l 972 556 l 1111 556 l 1111 694 z m 694 139 l 694 0 l 972 0 l 972 139 z m 972 278 l 972 139 l 1111 139 l 1111 278 z m 347 1111 l 347 972 l 486 972 l 486 1111 z m 625 1111 l 625 972 l 764 972 l 764 1111 z "},"ù":{"ha":1215,"x_min":0,"x_max":0,"o":"m 833 556 l 833 417 l 972 417 l 972 556 z m 694 417 l 694 278 l 833 278 l 833 417 z m 556 278 l 556 139 l 694 139 l 694 278 z m 278 139 l 278 278 l 139 278 l 139 139 z m 278 139 l 278 0 l 556 0 l 556 139 z m 278 417 l 278 278 l 417 278 l 417 417 z m 417 556 l 417 694 l 139 694 l 139 556 z m 417 556 l 417 417 l 556 417 l 556 556 z m 0 556 l 0 417 l 139 417 l 139 556 z m 972 694 l 972 556 l 1111 556 l 1111 694 z m 694 139 l 694 0 l 972 0 l 972 139 z m 972 278 l 972 139 l 1111 139 l 1111 278 z m 347 1111 l 347 1250 l 208 1250 l 208 1111 z m 347 1111 l 347 972 l 486 972 l 486 1111 z m 486 972 l 486 833 l 625 833 l 625 972 z "},"v":{"ha":1215,"x_min":0,"x_max":0,"o":"m 833 556 l 833 417 l 972 417 l 972 556 z m 694 417 l 694 278 l 833 278 l 833 417 z m 556 278 l 556 139 l 694 139 l 694 278 z m 278 139 l 278 278 l 139 278 l 139 139 z m 278 139 l 278 0 l 556 0 l 556 139 z m 278 417 l 278 278 l 417 278 l 417 417 z m 417 556 l 417 694 l 139 694 l 139 556 z m 417 556 l 417 417 l 556 417 l 556 556 z m 0 556 l 0 417 l 139 417 l 139 556 z m 972 694 l 972 556 l 1111 556 l 1111 694 z "},"w":{"ha":1771,"x_min":0,"x_max":0,"o":"m 833 556 l 833 417 l 972 417 l 972 556 z m 694 417 l 694 278 l 833 278 l 833 417 z m 556 278 l 556 139 l 694 139 l 694 278 z m 278 139 l 278 278 l 139 278 l 139 139 z m 278 139 l 278 0 l 556 0 l 556 139 z m 1111 139 l 1111 417 l 972 417 l 972 139 z m 1111 139 l 1111 0 l 1250 0 l 1250 139 z m 1250 278 l 1250 139 l 1389 139 l 1389 278 z m 1389 417 l 1389 278 l 1528 278 l 1528 417 z m 1528 556 l 1528 694 l 1389 694 l 1389 556 z m 1528 556 l 1528 417 l 1667 417 l 1667 556 z m 278 417 l 278 278 l 417 278 l 417 417 z m 417 556 l 417 694 l 139 694 l 139 556 z m 417 556 l 417 417 l 556 417 l 556 556 z m 0 556 l 0 417 l 139 417 l 139 556 z "},"ẃ":{"ha":1771,"x_min":0,"x_max":0,"o":"m 833 556 l 833 417 l 972 417 l 972 556 z m 694 417 l 694 278 l 833 278 l 833 417 z m 556 278 l 556 139 l 694 139 l 694 278 z m 278 139 l 278 278 l 139 278 l 139 139 z m 278 139 l 278 0 l 556 0 l 556 139 z m 1111 139 l 1111 417 l 972 417 l 972 139 z m 1111 139 l 1111 0 l 1250 0 l 1250 139 z m 1250 278 l 1250 139 l 1389 139 l 1389 278 z m 1389 417 l 1389 278 l 1528 278 l 1528 417 z m 1528 556 l 1528 694 l 1389 694 l 1389 556 z m 1528 556 l 1528 417 l 1667 417 l 1667 556 z m 278 417 l 278 278 l 417 278 l 417 417 z m 417 556 l 417 694 l 139 694 l 139 556 z m 417 556 l 417 417 l 556 417 l 556 556 z m 0 556 l 0 417 l 139 417 l 139 556 z m 764 972 l 764 833 l 903 833 l 903 972 z m 903 1111 l 903 972 l 1042 972 l 1042 1111 z m 1042 1250 l 1042 1111 l 1181 1111 l 1181 1250 z "},"ŵ":{"ha":1771,"x_min":0,"x_max":0,"o":"m 833 556 l 833 417 l 972 417 l 972 556 z m 694 417 l 694 278 l 833 278 l 833 417 z m 556 278 l 556 139 l 694 139 l 694 278 z m 278 139 l 278 278 l 139 278 l 139 139 z m 278 139 l 278 0 l 556 0 l 556 139 z m 1111 139 l 1111 417 l 972 417 l 972 139 z m 1111 139 l 1111 0 l 1250 0 l 1250 139 z m 1250 278 l 1250 139 l 1389 139 l 1389 278 z m 1389 417 l 1389 278 l 1528 278 l 1528 417 z m 1528 556 l 1528 694 l 1389 694 l 1389 556 z m 1528 556 l 1528 417 l 1667 417 l 1667 556 z m 278 417 l 278 278 l 417 278 l 417 417 z m 417 556 l 417 694 l 139 694 l 139 556 z m 417 556 l 417 417 l 556 417 l 556 556 z m 0 556 l 0 417 l 139 417 l 139 556 z m 764 1111 l 764 972 l 903 972 l 903 1111 z m 625 972 l 625 833 l 764 833 l 764 972 z m 903 972 l 903 833 l 1042 833 l 1042 972 z "},"ẅ":{"ha":1771,"x_min":0,"x_max":0,"o":"m 833 556 l 833 417 l 972 417 l 972 556 z m 694 417 l 694 278 l 833 278 l 833 417 z m 556 278 l 556 139 l 694 139 l 694 278 z m 278 139 l 278 278 l 139 278 l 139 139 z m 278 139 l 278 0 l 556 0 l 556 139 z m 1111 139 l 1111 417 l 972 417 l 972 139 z m 1111 139 l 1111 0 l 1250 0 l 1250 139 z m 1250 278 l 1250 139 l 1389 139 l 1389 278 z m 1389 417 l 1389 278 l 1528 278 l 1528 417 z m 1528 556 l 1528 694 l 1389 694 l 1389 556 z m 1528 556 l 1528 417 l 1667 417 l 1667 556 z m 278 417 l 278 278 l 417 278 l 417 417 z m 417 556 l 417 694 l 139 694 l 139 556 z m 417 556 l 417 417 l 556 417 l 556 556 z m 0 556 l 0 417 l 139 417 l 139 556 z m 625 1111 l 625 972 l 764 972 l 764 1111 z m 903 1111 l 903 972 l 1042 972 l 1042 1111 z "},"ẁ":{"ha":1771,"x_min":0,"x_max":0,"o":"m 833 556 l 833 417 l 972 417 l 972 556 z m 694 417 l 694 278 l 833 278 l 833 417 z m 556 278 l 556 139 l 694 139 l 694 278 z m 278 139 l 278 278 l 139 278 l 139 139 z m 278 139 l 278 0 l 556 0 l 556 139 z m 1111 139 l 1111 417 l 972 417 l 972 139 z m 1111 139 l 1111 0 l 1250 0 l 1250 139 z m 1250 278 l 1250 139 l 1389 139 l 1389 278 z m 1389 417 l 1389 278 l 1528 278 l 1528 417 z m 1528 556 l 1528 694 l 1389 694 l 1389 556 z m 1528 556 l 1528 417 l 1667 417 l 1667 556 z m 278 417 l 278 278 l 417 278 l 417 417 z m 417 556 l 417 694 l 139 694 l 139 556 z m 417 556 l 417 417 l 556 417 l 556 556 z m 0 556 l 0 417 l 139 417 l 139 556 z m 625 1111 l 625 1250 l 486 1250 l 486 1111 z m 625 1111 l 625 972 l 764 972 l 764 1111 z m 764 972 l 764 833 l 903 833 l 903 972 z "},"x":{"ha":1354,"x_min":0,"x_max":0,"o":"m 556 556 l 556 278 l 417 278 l 417 139 l 694 139 l 694 417 l 833 417 l 833 556 z m 833 694 l 833 556 l 1111 556 l 1111 694 z m 417 139 l 139 139 l 139 0 l 417 0 z m 556 556 l 556 694 l 278 694 l 278 556 z m 694 139 l 694 0 l 972 0 l 972 139 z m 139 139 l 139 278 l 0 278 l 0 139 z m 139 556 l 139 417 l 278 417 l 278 556 z m 1111 556 l 1111 417 l 1250 417 l 1250 556 z m 972 278 l 972 139 l 1111 139 l 1111 278 z "},"y":{"ha":1354,"x_min":0,"x_max":0,"o":"m 972 556 l 972 417 l 1111 417 l 1111 556 z m 833 417 l 833 278 l 972 278 l 972 417 z m 694 278 l 694 139 l 833 139 l 833 278 z m 278 278 l 278 139 l 417 139 l 417 278 z m 417 417 l 417 278 l 556 278 l 556 417 z m 556 556 l 556 694 l 278 694 l 278 556 z m 556 556 l 556 417 l 694 417 l 694 556 z m 694 139 l 417 139 l 417 -139 l 556 -139 l 556 0 l 694 0 z m 139 556 l 139 417 l 278 417 l 278 556 z m 1111 694 l 1111 556 l 1250 556 l 1250 694 z m 417 -139 l 139 -139 l 139 -278 l 417 -278 z m 139 -139 l 139 0 l 0 0 l 0 -139 z "},"ý":{"ha":1354,"x_min":0,"x_max":0,"o":"m 972 556 l 972 417 l 1111 417 l 1111 556 z m 833 417 l 833 278 l 972 278 l 972 417 z m 694 278 l 694 139 l 833 139 l 833 278 z m 278 278 l 278 139 l 417 139 l 417 278 z m 417 417 l 417 278 l 556 278 l 556 417 z m 556 556 l 556 694 l 278 694 l 278 556 z m 556 556 l 556 417 l 694 417 l 694 556 z m 694 139 l 417 139 l 417 -139 l 556 -139 l 556 0 l 694 0 z m 139 556 l 139 417 l 278 417 l 278 556 z m 1111 694 l 1111 556 l 1250 556 l 1250 694 z m 417 -139 l 139 -139 l 139 -278 l 417 -278 z m 139 -139 l 139 0 l 0 0 l 0 -139 z m 556 972 l 556 833 l 694 833 l 694 972 z m 694 1111 l 694 972 l 833 972 l 833 1111 z m 833 1250 l 833 1111 l 972 1111 l 972 1250 z "},"ŷ":{"ha":1354,"x_min":0,"x_max":0,"o":"m 972 556 l 972 417 l 1111 417 l 1111 556 z m 833 417 l 833 278 l 972 278 l 972 417 z m 694 278 l 694 139 l 833 139 l 833 278 z m 278 278 l 278 139 l 417 139 l 417 278 z m 417 417 l 417 278 l 556 278 l 556 417 z m 556 556 l 556 694 l 278 694 l 278 556 z m 556 556 l 556 417 l 694 417 l 694 556 z m 694 139 l 417 139 l 417 -139 l 556 -139 l 556 0 l 694 0 z m 139 556 l 139 417 l 278 417 l 278 556 z m 1111 694 l 1111 556 l 1250 556 l 1250 694 z m 417 -139 l 139 -139 l 139 -278 l 417 -278 z m 139 -139 l 139 0 l 0 0 l 0 -139 z m 556 1111 l 556 972 l 694 972 l 694 1111 z m 417 972 l 417 833 l 556 833 l 556 972 z m 694 972 l 694 833 l 833 833 l 833 972 z "},"ÿ":{"ha":1354,"x_min":0,"x_max":0,"o":"m 972 556 l 972 417 l 1111 417 l 1111 556 z m 833 417 l 833 278 l 972 278 l 972 417 z m 694 278 l 694 139 l 833 139 l 833 278 z m 278 278 l 278 139 l 417 139 l 417 278 z m 417 417 l 417 278 l 556 278 l 556 417 z m 556 556 l 556 694 l 278 694 l 278 556 z m 556 556 l 556 417 l 694 417 l 694 556 z m 694 139 l 417 139 l 417 -139 l 556 -139 l 556 0 l 694 0 z m 139 556 l 139 417 l 278 417 l 278 556 z m 1111 694 l 1111 556 l 1250 556 l 1250 694 z m 417 -139 l 139 -139 l 139 -278 l 417 -278 z m 139 -139 l 139 0 l 0 0 l 0 -139 z m 417 1111 l 417 972 l 556 972 l 556 1111 z m 694 1111 l 694 972 l 833 972 l 833 1111 z "},"ỳ":{"ha":1354,"x_min":0,"x_max":0,"o":"m 972 556 l 972 417 l 1111 417 l 1111 556 z m 833 417 l 833 278 l 972 278 l 972 417 z m 694 278 l 694 139 l 833 139 l 833 278 z m 278 278 l 278 139 l 417 139 l 417 278 z m 417 417 l 417 278 l 556 278 l 556 417 z m 556 556 l 556 694 l 278 694 l 278 556 z m 556 556 l 556 417 l 694 417 l 694 556 z m 694 139 l 417 139 l 417 -139 l 556 -139 l 556 0 l 694 0 z m 139 556 l 139 417 l 278 417 l 278 556 z m 1111 694 l 1111 556 l 1250 556 l 1250 694 z m 417 -139 l 139 -139 l 139 -278 l 417 -278 z m 139 -139 l 139 0 l 0 0 l 0 -139 z m 417 1111 l 417 1250 l 278 1250 l 278 1111 z m 417 1111 l 417 972 l 556 972 l 556 1111 z m 556 972 l 556 833 l 694 833 l 694 972 z "},"z":{"ha":1215,"x_min":0,"x_max":0,"o":"m 556 694 l 278 694 l 278 556 l 556 556 z m 417 417 l 417 278 l 556 278 l 556 417 z m 833 694 l 833 556 l 1111 556 l 1111 694 z m 833 556 l 556 556 l 556 417 l 833 417 z m 417 139 l 417 278 l 139 278 l 139 139 z m 417 139 l 417 0 l 833 0 l 833 139 z m 0 139 l 0 0 l 139 0 l 139 139 z m 139 556 l 139 417 l 278 417 l 278 556 z m 833 278 l 833 139 l 972 139 l 972 278 z "},"ž":{"ha":1215,"x_min":0,"x_max":0,"o":"m 556 694 l 278 694 l 278 556 l 556 556 z m 417 417 l 417 278 l 556 278 l 556 417 z m 833 694 l 833 556 l 1111 556 l 1111 694 z m 833 556 l 556 556 l 556 417 l 833 417 z m 417 139 l 417 278 l 139 278 l 139 139 z m 417 139 l 417 0 l 833 0 l 833 139 z m 0 139 l 0 0 l 139 0 l 139 139 z m 139 556 l 139 417 l 278 417 l 278 556 z m 833 278 l 833 139 l 972 139 l 972 278 z m 417 1111 l 417 972 l 556 972 l 556 1111 z m 556 972 l 556 833 l 694 833 l 694 972 z m 694 1111 l 694 972 l 833 972 l 833 1111 z "},"⁰":{"ha":521,"x_min":0,"x_max":0,"o":"m 139 972 l 139 833 l 278 833 l 278 972 z m 0 833 l 0 694 l 139 694 l 139 833 z m 139 694 l 139 556 l 278 556 l 278 694 z m 278 833 l 278 694 l 417 694 l 417 833 z "},"¹":{"ha":382,"x_min":0,"x_max":0,"o":"m 139 833 l 139 972 l 0 972 l 0 833 z m 139 833 l 139 417 l 278 417 l 278 833 z "},"²":{"ha":521,"x_min":0,"x_max":0,"o":"m 278 833 l 278 972 l 0 972 l 0 833 z m 278 833 l 278 694 l 417 694 l 417 833 z m 139 694 l 139 556 l 0 556 l 0 417 l 417 417 l 417 556 l 278 556 l 278 694 z "},"³":{"ha":521,"x_min":0,"x_max":0,"o":"m 417 972 l 0 972 l 0 833 l 139 833 l 139 694 l 278 694 l 278 833 l 417 833 z m 278 694 l 278 556 l 417 556 l 417 694 z m 278 556 l 0 556 l 0 417 l 278 417 z "},"⁴":{"ha":660,"x_min":0,"x_max":0,"o":"m 139 972 l 139 694 l 0 694 l 0 556 l 278 556 l 278 417 l 417 417 l 417 556 l 556 556 l 556 694 l 417 694 l 417 833 l 278 833 l 278 972 z "},"⁵":{"ha":382,"x_min":0,"x_max":0,"o":"m 0 972 l 0 694 l 139 694 l 139 833 l 278 833 l 278 972 z m 139 694 l 139 556 l 278 556 l 278 694 z m 0 556 l 0 417 l 139 417 l 139 556 z "},"⁶":{"ha":521,"x_min":0,"x_max":0,"o":"m 139 833 l 0 833 l 0 556 l 139 556 l 139 694 l 278 694 l 278 833 l 417 833 l 417 972 l 139 972 z m 139 556 l 139 417 l 278 417 l 278 556 z m 278 694 l 278 556 l 417 556 l 417 694 z "},"⁷":{"ha":521,"x_min":0,"x_max":0,"o":"m 0 972 l 0 833 l 278 833 l 278 972 z m 278 833 l 278 694 l 417 694 l 417 833 z m 139 694 l 139 556 l 278 556 l 278 694 z m 0 556 l 0 417 l 139 417 l 139 556 z "},"⁸":{"ha":521,"x_min":0,"x_max":0,"o":"m 139 1111 l 139 972 l 278 972 l 278 1111 z m 0 972 l 0 833 l 139 833 l 139 972 z m 278 972 l 278 833 l 417 833 l 417 972 z m 139 833 l 139 694 l 278 694 l 278 833 z m 0 694 l 0 556 l 139 556 l 139 694 z m 139 556 l 139 417 l 278 417 l 278 556 z m 278 694 l 278 556 l 417 556 l 417 694 z "},"⁹":{"ha":521,"x_min":0,"x_max":0,"o":"m 139 972 l 139 833 l 278 833 l 278 972 z m 0 833 l 0 694 l 139 694 l 139 833 z m 278 833 l 278 694 l 417 694 l 417 833 z m 0 556 l 0 417 l 139 417 l 139 556 z m 139 694 l 139 556 l 278 556 l 278 694 z "},".":{"ha":694,"x_min":0,"x_max":0,"o":"m 208 278 l 208 0 l 486 0 l 486 278 z "},",":{"ha":694,"x_min":0,"x_max":0,"o":"m 208 278 l 208 0 l 347 0 l 347 -139 l 486 -139 l 486 278 z m 208 -139 l 208 -278 l 347 -278 l 347 -139 z "},":":{"ha":694,"x_min":0,"x_max":0,"o":"m 486 694 l 208 694 l 208 417 l 486 417 z m 208 278 l 208 0 l 486 0 l 486 278 z "},";":{"ha":694,"x_min":0,"x_max":0,"o":"m 486 694 l 208 694 l 208 417 l 486 417 z m 347 0 l 347 -139 l 486 -139 l 486 278 l 208 278 l 208 0 z m 208 -139 l 208 -278 l 347 -278 l 347 -139 z "},"…":{"ha":1111,"x_min":0,"x_max":0,"o":"m 208 139 l 208 0 l 347 0 l 347 139 z m 486 139 l 486 0 l 625 0 l 625 139 z m 764 139 l 764 0 l 903 0 l 903 139 z "},"!":{"ha":556,"x_min":0,"x_max":0,"o":"m 208 972 l 208 417 l 347 417 l 347 972 z m 208 278 l 208 0 l 347 0 l 347 278 z "},"¡":{"ha":694,"x_min":0,"x_max":0,"o":"m 486 833 l 208 833 l 208 694 l 486 694 z m 486 556 l 208 556 l 208 -139 l 486 -139 z "},"?":{"ha":1111,"x_min":0,"x_max":0,"o":"m 764 972 l 347 972 l 347 833 l 764 833 z m 208 833 l 208 694 l 347 694 l 347 833 z m 764 833 l 764 556 l 903 556 l 903 833 z m 486 278 l 486 0 l 625 0 l 625 278 z m 764 556 l 486 556 l 486 417 l 764 417 z "},"·":{"ha":694,"x_min":0,"x_max":0,"o":"m 208 556 l 208 278 l 486 278 l 486 556 z "},"*":{"ha":1389,"x_min":0,"x_max":0,"o":"m 486 556 l 486 694 l 347 694 l 347 556 z m 486 556 l 486 417 l 208 417 l 208 278 l 486 278 l 486 139 l 625 139 l 625 278 l 764 278 l 764 139 l 903 139 l 903 278 l 1181 278 l 1181 417 l 903 417 l 903 556 l 764 556 l 764 417 l 625 417 l 625 556 z m 347 139 l 347 0 l 486 0 l 486 139 z m 903 139 l 903 0 l 1042 0 l 1042 139 z m 903 694 l 903 556 l 1042 556 l 1042 694 z "},"#":{"ha":1389,"x_min":0,"x_max":0,"o":"m 625 972 l 347 972 l 347 694 l 208 694 l 208 556 l 347 556 l 347 417 l 208 417 l 208 278 l 347 278 l 347 0 l 625 0 l 625 278 l 764 278 l 764 0 l 1042 0 l 1042 278 l 1181 278 l 1181 417 l 1042 417 l 1042 556 l 1181 556 l 1181 694 l 1042 694 l 1042 972 l 764 972 l 764 694 l 625 694 z m 764 556 l 764 417 l 625 417 l 625 556 z "},"/":{"ha":1806,"x_min":0,"x_max":0,"o":"m 1458 833 l 1181 833 l 1181 694 l 1042 694 l 1042 556 l 903 556 l 903 417 l 764 417 l 764 278 l 625 278 l 625 139 l 486 139 l 486 0 l 347 0 l 347 -139 l 625 -139 l 625 0 l 764 0 l 764 139 l 903 139 l 903 278 l 1042 278 l 1042 417 l 1181 417 l 1181 556 l 1319 556 l 1319 694 l 1458 694 z m 1458 972 l 1458 833 l 1597 833 l 1597 972 z m 208 -139 l 208 -278 l 347 -278 l 347 -139 z "},"\\":{"ha":1806,"x_min":0,"x_max":0,"o":"m 208 972 l 208 833 l 347 833 l 347 972 z m 347 833 l 347 694 l 486 694 l 486 556 l 625 556 l 625 417 l 764 417 l 764 278 l 903 278 l 903 139 l 1042 139 l 1042 0 l 1181 0 l 1181 -139 l 1458 -139 l 1458 0 l 1319 0 l 1319 139 l 1181 139 l 1181 278 l 1042 278 l 1042 417 l 903 417 l 903 556 l 764 556 l 764 694 l 625 694 l 625 833 z m 1458 -139 l 1458 -278 l 1597 -278 l 1597 -139 z "},"-":{"ha":972,"x_min":0,"x_max":0,"o":"m 764 417 l 208 417 l 208 278 l 764 278 z "},"–":{"ha":1250,"x_min":0,"x_max":0,"o":"m 208 417 l 208 278 l 1042 278 l 1042 417 z "},"—":{"ha":1389,"x_min":0,"x_max":0,"o":"m 208 417 l 208 278 l 1181 278 l 1181 417 z "},"_":{"ha":1250,"x_min":0,"x_max":0,"o":"m 1042 0 l 208 0 l 208 -139 l 1042 -139 z "},"(":{"ha":833,"x_min":0,"x_max":0,"o":"m 486 972 l 486 833 l 625 833 l 625 972 z m 347 833 l 347 694 l 486 694 l 486 833 z m 208 694 l 208 139 l 347 139 l 347 694 z m 347 139 l 347 0 l 486 0 l 486 139 z m 486 0 l 486 -139 l 625 -139 l 625 0 z "},")":{"ha":833,"x_min":0,"x_max":0,"o":"m 208 972 l 208 833 l 347 833 l 347 972 z m 347 833 l 347 694 l 486 694 l 486 833 z m 486 694 l 486 139 l 625 139 l 625 694 z m 347 139 l 347 0 l 486 0 l 486 139 z m 208 0 l 208 -139 l 347 -139 l 347 0 z "},"{":{"ha":972,"x_min":0,"x_max":0,"o":"m 625 972 l 625 833 l 764 833 l 764 972 z m 486 833 l 486 417 l 625 417 l 625 833 z m 486 417 l 208 417 l 208 278 l 486 278 z m 486 278 l 486 -139 l 625 -139 l 625 278 z m 625 -139 l 625 -278 l 764 -278 l 764 -139 z "},"}":{"ha":972,"x_min":0,"x_max":0,"o":"m 208 972 l 208 833 l 347 833 l 347 972 z m 347 833 l 347 417 l 486 417 l 486 833 z m 486 417 l 486 278 l 764 278 l 764 417 z m 347 278 l 347 -139 l 486 -139 l 486 278 z m 208 -139 l 208 -278 l 347 -278 l 347 -139 z "},"[":{"ha":972,"x_min":0,"x_max":0,"o":"m 764 972 l 208 972 l 208 -139 l 764 -139 l 764 0 l 486 0 l 486 833 l 764 833 z "},"]":{"ha":833,"x_min":0,"x_max":0,"o":"m 208 972 l 208 833 l 486 833 l 486 0 l 208 0 l 208 -139 l 625 -139 l 625 972 z "},"❩":{"ha":1250,"x_min":0,"x_max":0,"o":"m 625 972 l 208 972 l 208 833 l 486 833 l 486 694 l 625 694 l 625 0 l 486 0 l 486 -139 l 208 -139 l 208 -278 l 625 -278 l 625 -139 l 764 -139 l 764 0 l 903 0 l 903 139 l 1042 139 l 1042 556 l 903 556 l 903 694 l 764 694 l 764 833 l 625 833 z "},"„":{"ha":833,"x_min":0,"x_max":0,"o":"m 208 139 l 208 -139 l 347 -139 l 347 139 z m 486 139 l 486 -139 l 625 -139 l 625 139 z "},"“":{"ha":833,"x_min":0,"x_max":0,"o":"m 208 972 l 208 694 l 347 694 l 347 972 z m 486 972 l 486 694 l 625 694 l 625 972 z "},"”":{"ha":833,"x_min":0,"x_max":0,"o":"m 486 972 l 486 694 l 625 694 l 625 972 z m 208 972 l 208 694 l 347 694 l 347 972 z "},"‘":{"ha":694,"x_min":0,"x_max":0,"o":"m 347 972 l 347 833 l 486 833 l 486 972 z m 208 833 l 208 556 l 347 556 l 347 833 z "},"’":{"ha":694,"x_min":0,"x_max":0,"o":"m 347 972 l 347 694 l 486 694 l 486 972 z m 208 694 l 208 556 l 347 556 l 347 694 z "},"«":{"ha":1250,"x_min":0,"x_max":0,"o":"m 208 417 l 208 278 l 347 278 l 347 417 z m 347 556 l 347 417 l 486 417 l 486 556 z m 347 278 l 347 139 l 486 139 l 486 278 z m 764 556 l 764 417 l 903 417 l 903 556 z m 625 417 l 625 278 l 764 278 l 764 417 z m 764 278 l 764 139 l 903 139 l 903 278 z m 903 694 l 903 556 l 1042 556 l 1042 694 z m 903 139 l 903 0 l 1042 0 l 1042 139 z m 486 694 l 486 556 l 625 556 l 625 694 z m 486 139 l 486 0 l 625 0 l 625 139 z "},"»":{"ha":1250,"x_min":0,"x_max":0,"o":"m 903 417 l 903 556 l 764 556 l 764 417 z m 903 417 l 903 278 l 1042 278 l 1042 417 z m 764 556 l 764 694 l 625 694 l 625 556 z m 764 278 l 764 139 l 903 139 l 903 278 z m 625 139 l 625 0 l 764 0 l 764 139 z m 208 139 l 208 0 l 347 0 l 347 139 z m 347 278 l 347 139 l 486 139 l 486 278 z m 486 417 l 486 556 l 347 556 l 347 417 z m 486 417 l 486 278 l 625 278 l 625 417 z m 347 556 l 347 694 l 208 694 l 208 556 z "},"‹":{"ha":833,"x_min":0,"x_max":0,"o":"m 486 694 l 486 556 l 625 556 l 625 694 z m 347 556 l 347 417 l 486 417 l 486 556 z m 208 417 l 208 278 l 347 278 l 347 417 z m 347 278 l 347 139 l 486 139 l 486 278 z m 486 139 l 486 0 l 625 0 l 625 139 z "},"›":{"ha":833,"x_min":0,"x_max":0,"o":"m 208 694 l 208 556 l 347 556 l 347 694 z m 347 556 l 347 417 l 486 417 l 486 556 z m 486 417 l 486 278 l 625 278 l 625 417 z m 347 278 l 347 139 l 486 139 l 486 278 z m 208 139 l 208 0 l 347 0 l 347 139 z "},"\"":{"ha":833,"x_min":0,"x_max":0,"o":"m 208 972 l 208 694 l 347 694 l 347 972 z m 486 972 l 486 694 l 625 694 l 625 972 z "},"'":{"ha":556,"x_min":0,"x_max":0,"o":"m 208 972 l 208 694 l 347 694 l 347 972 z "},"♩":{"ha":521,"x_min":0,"x_max":0,"o":"m 278 972 l 278 278 l 139 278 l 139 139 l 0 139 l 0 0 l 139 0 l 139 -139 l 278 -139 l 278 0 l 417 0 l 417 972 z "},"♪":{"ha":938,"x_min":0,"x_max":0,"o":"m 278 972 l 278 278 l 139 278 l 139 139 l 0 139 l 0 0 l 139 0 l 139 -139 l 278 -139 l 278 0 l 417 0 l 417 694 l 556 694 l 556 833 l 417 833 l 417 972 z m 556 694 l 556 556 l 694 556 l 694 694 z m 694 556 l 694 278 l 833 278 l 833 556 z m 556 278 l 556 139 l 694 139 l 694 278 z "},"♫":{"ha":1076,"x_min":0,"x_max":0,"o":"m 278 694 l 278 278 l 139 278 l 139 139 l 0 139 l 0 0 l 139 0 l 139 -139 l 278 -139 l 278 0 l 417 0 l 417 556 l 556 556 l 556 694 z m 556 833 l 556 694 l 694 694 l 694 833 z m 694 972 l 694 833 l 833 833 l 833 972 z m 833 833 l 833 278 l 694 278 l 694 139 l 556 139 l 556 0 l 694 0 l 694 -139 l 833 -139 l 833 0 l 972 0 l 972 833 z "},"☁":{"ha":1076,"x_min":0,"x_max":0,"o":"m 0 972 l 0 694 l 139 694 l 139 833 l 278 833 l 278 972 z m 278 833 l 278 694 l 417 694 l 417 833 z m 556 972 l 556 833 l 694 833 l 694 972 z m 694 833 l 694 694 l 833 694 l 833 833 z m 833 972 l 833 833 l 972 833 l 972 972 z m 556 694 l 556 556 l 694 556 l 694 694 z m 0 278 l 0 139 l 139 139 l 139 0 l 278 0 l 278 139 l 417 139 l 417 278 l 278 278 l 278 417 l 139 417 l 139 278 z m 278 0 l 278 -139 l 417 -139 l 417 0 z m 833 417 l 833 278 l 972 278 l 972 417 z m 694 278 l 694 139 l 556 139 l 556 0 l 694 0 l 694 -139 l 833 -139 l 833 0 l 972 0 l 972 139 l 833 139 l 833 278 z m 556 -139 l 556 -278 l 694 -278 l 694 -139 z m 417 556 l 417 417 l 556 417 l 556 556 z "},"☉":{"ha":1354,"x_min":0,"x_max":0,"o":"m 833 972 l 417 972 l 417 833 l 833 833 z m 278 833 l 278 694 l 417 694 l 417 833 z m 833 833 l 833 694 l 972 694 l 972 833 z m 972 694 l 972 556 l 1111 556 l 1111 694 z m 139 694 l 139 556 l 278 556 l 278 694 z m 0 556 l 0 139 l 139 139 l 139 556 z m 139 139 l 139 0 l 278 0 l 278 139 z m 278 0 l 278 -139 l 417 -139 l 417 0 z m 417 -139 l 417 -278 l 833 -278 l 833 -139 z m 833 0 l 833 -139 l 972 -139 l 972 0 z m 1111 556 l 1111 139 l 1250 139 l 1250 556 z m 972 139 l 972 0 l 1111 0 l 1111 139 z m 556 417 l 556 278 l 694 278 l 694 417 z "},"☻":{"ha":1078,"x_min":0,"x_max":0,"o":"m 694 972 l 278 972 l 278 833 l 140 833 l 140 694 l 1 694 l 1 278 l 142 278 l 142 139 l 278 139 l 278 0 l 694 0 l 694 139 l 836 139 l 836 278 l 974 278 l 974 694 l 835 694 l 835 833 l 694 833 z m 835 417 l 696 417 l 696 278 l 279 278 l 279 417 l 140 417 l 140 556 l 279 556 l 279 694 l 418 694 l 418 556 l 279 556 l 279 417 l 696 417 l 696 556 l 557 556 l 557 694 l 696 694 l 696 556 l 835 556 z "},"☽":{"ha":938,"x_min":0,"x_max":0,"o":"m 417 972 l 0 972 l 0 833 l 278 833 l 278 694 l 417 694 l 417 0 l 278 0 l 278 -139 l 0 -139 l 0 -278 l 417 -278 l 417 -139 l 556 -139 l 556 0 l 694 0 l 694 139 l 556 139 l 556 556 l 694 556 l 694 694 l 556 694 l 556 833 l 417 833 z m 694 556 l 694 139 l 833 139 l 833 556 z "},"☾":{"ha":938,"x_min":0,"x_max":0,"o":"m 417 972 l 417 833 l 278 833 l 278 694 l 139 694 l 139 556 l 278 556 l 278 139 l 139 139 l 139 0 l 278 0 l 278 -139 l 417 -139 l 417 -278 l 833 -278 l 833 -139 l 556 -139 l 556 0 l 417 0 l 417 694 l 556 694 l 556 833 l 833 833 l 833 972 z m 0 556 l 0 139 l 139 139 l 139 556 z "},"♨":{"ha":1910,"x_min":0,"x_max":0,"o":"m 417 1110 l 417 971 l 556 971 l 556 1110 z m 556 971 l 556 693 l 694 693 l 694 971 z m 417 693 l 417 276 l 556 276 l 556 693 z m 556 276 l 556 138 l 694 138 l 694 276 z m 833 1110 l 833 971 l 972 971 l 972 1110 z m 972 971 l 972 693 l 1111 693 l 1111 971 z m 833 693 l 833 276 l 972 276 l 972 693 z m 972 276 l 972 138 l 1111 138 l 1111 276 z m 1250 1110 l 1250 971 l 1389 971 l 1389 1110 z m 1389 971 l 1389 693 l 1528 693 l 1528 971 z m 1250 693 l 1250 276 l 1389 276 l 1389 693 z m 1389 276 l 1389 138 l 1528 138 l 1528 276 z m 139 -1 l 139 415 l 0 415 l 0 -1 z m 139 -1 l 139 -140 l 417 -140 l 417 -1 z m 417 -140 l 417 -279 l 1389 -279 l 1389 -140 z m 1389 -1 l 1389 -140 l 1667 -140 l 1667 -1 z m 1667 415 l 1667 -1 l 1806 -1 l 1806 415 z m 1667 415 l 1667 554 l 1528 554 l 1528 415 z m 139 554 l 139 415 l 278 415 l 278 554 z "},"✓":{"ha":1493,"x_min":0,"x_max":0,"o":"m 0 556 l 0 417 l 139 417 l 139 556 z m 139 417 l 139 278 l 278 278 l 278 417 z m 278 278 l 278 139 l 417 139 l 417 278 z m 417 139 l 417 0 l 556 0 l 556 139 z m 556 278 l 556 139 l 694 139 l 694 278 z m 694 417 l 694 278 l 833 278 l 833 417 z m 833 556 l 833 417 l 972 417 l 972 556 z m 972 694 l 972 556 l 1111 556 l 1111 694 z m 1111 833 l 1111 694 l 1250 694 l 1250 833 z m 1250 972 l 1250 833 l 1389 833 l 1389 972 z "},"✕":{"ha":1076,"x_min":0,"x_max":0,"o":"m 0 139 l 0 0 l 139 0 l 139 139 z m 139 278 l 139 139 l 278 139 l 278 278 z m 278 417 l 278 278 l 417 278 l 417 417 z m 417 556 l 417 694 l 278 694 l 278 556 z m 417 556 l 417 417 l 556 417 l 556 556 z m 556 694 l 556 556 l 694 556 l 694 694 z m 694 833 l 694 694 l 833 694 l 833 833 z m 833 972 l 833 833 l 972 833 l 972 972 z m 278 694 l 278 833 l 139 833 l 139 694 z m 139 833 l 139 972 l 0 972 l 0 833 z m 556 417 l 556 278 l 694 278 l 694 417 z m 694 278 l 694 139 l 833 139 l 833 278 z m 833 139 l 833 0 l 972 0 l 972 139 z "},"❤":{"ha":1354,"x_min":0,"x_max":0,"o":"m 139 972 l 139 833 l 0 833 l 0 556 l 139 556 l 139 417 l 278 417 l 278 278 l 417 278 l 417 139 l 556 139 l 556 0 l 694 0 l 694 139 l 833 139 l 833 278 l 972 278 l 972 417 l 1111 417 l 1111 556 l 1250 556 l 1250 833 l 1111 833 l 1111 972 l 833 972 l 833 833 l 694 833 l 694 694 l 556 694 l 556 833 l 417 833 l 417 972 z "},"@":{"ha":1467,"x_min":0,"x_max":0,"o":"m 278 972 l 278 833 l 417 833 l 417 972 z m 139 833 l 139 694 l 278 694 l 278 833 z m 0 694 l 0 139 l 139 139 l 139 694 z m 139 139 l 139 0 l 278 0 l 278 139 z m 278 0 l 278 -139 l 417 -139 l 417 0 z m 833 0 l 833 -139 l 972 -139 l 972 0 z m 972 139 l 972 0 l 1111 0 l 1111 139 z m 1111 694 l 1111 139 l 1250 139 l 1250 694 z m 1111 694 l 1111 833 l 972 833 l 972 694 z m 972 833 l 972 972 l 833 972 l 833 833 z m 556 417 l 556 278 l 694 278 l 694 139 l 833 139 l 833 556 l 694 556 l 694 417 z m 417 278 l 417 139 l 556 139 l 556 278 z m 556 139 l 556 0 l 694 0 l 694 139 z m 694 556 l 694 694 l 417 694 l 417 556 z "},"&":{"ha":1076,"x_min":0,"x_max":0,"o":"m 278 972 l 278 833 l 556 833 l 556 972 z m 139 833 l 139 694 l 278 694 l 278 833 z m 417 556 l 417 417 l 556 417 l 556 694 l 278 694 l 278 556 z m 556 417 l 556 139 l 833 139 l 833 278 l 694 278 l 694 417 z m 833 139 l 833 0 l 972 0 l 972 139 z m 556 833 l 556 694 l 694 694 l 694 833 z m 139 556 l 139 417 l 278 417 l 278 556 z m 0 417 l 0 139 l 139 139 l 139 417 z m 139 139 l 139 0 l 556 0 l 556 139 z m 694 556 l 694 417 l 833 417 l 833 556 z m 833 694 l 833 556 l 972 556 l 972 694 z "},"¶":{"ha":938,"x_min":0,"x_max":0,"o":"m 417 972 l 139 972 l 139 833 l 0 833 l 0 694 l 139 694 l 139 556 l 417 556 l 417 0 l 556 0 l 556 833 l 417 833 z m 694 972 l 694 0 l 833 0 l 833 972 z "},"§":{"ha":660,"x_min":0,"x_max":0,"o":"m 556 972 l 139 972 l 139 833 l 556 833 z m 0 833 l 0 694 l 139 694 l 139 833 z m 139 694 l 139 556 l 417 556 l 417 694 z m 139 417 l 139 556 l 0 556 l 0 417 z m 139 417 l 139 278 l 417 278 l 417 417 z m 417 278 l 417 139 l 556 139 l 556 278 z m 417 139 l 0 139 l 0 0 l 417 0 z m 417 556 l 417 417 l 556 417 l 556 556 z "},"©":{"ha":1354,"x_min":0,"x_max":0,"o":"m 972 972 l 278 972 l 278 833 l 972 833 z m 139 833 l 139 694 l 278 694 l 278 833 z m 0 694 l 0 139 l 139 139 l 139 694 z m 139 139 l 139 0 l 278 0 l 278 139 z m 972 0 l 278 0 l 278 -139 l 972 -139 z m 1111 694 l 1111 139 l 1250 139 l 1250 694 z m 1111 694 l 1111 833 l 972 833 l 972 694 z m 694 556 l 694 694 l 556 694 l 556 556 z m 694 556 l 694 417 l 833 417 l 833 556 z m 417 556 l 417 278 l 556 278 l 556 556 z m 972 139 l 972 0 l 1111 0 l 1111 139 z m 556 278 l 556 139 l 833 139 l 833 278 z "},"®":{"ha":1354,"x_min":0,"x_max":0,"o":"m 417 694 l 417 139 l 556 139 l 556 278 l 694 278 l 694 417 l 556 417 l 556 556 l 694 556 l 694 694 z m 694 556 l 694 417 l 833 417 l 833 556 z m 694 278 l 694 139 l 833 139 l 833 278 z m 972 972 l 278 972 l 278 833 l 972 833 z m 972 833 l 972 694 l 1111 694 l 1111 833 z m 1111 694 l 1111 139 l 1250 139 l 1250 694 z m 139 833 l 139 694 l 278 694 l 278 833 z m 0 694 l 0 139 l 139 139 l 139 694 z m 139 139 l 139 0 l 278 0 l 278 139 z m 972 0 l 278 0 l 278 -139 l 972 -139 z m 972 139 l 972 0 l 1111 0 l 1111 139 z "},"™":{"ha":1493,"x_min":0,"x_max":0,"o":"m 694 972 l 0 972 l 0 833 l 278 833 l 278 556 l 417 556 l 417 833 l 694 833 z m 694 694 l 694 556 l 833 556 l 833 694 z m 833 972 l 833 694 l 972 694 l 972 972 z m 972 694 l 972 556 l 1111 556 l 1111 694 z m 1111 972 l 1111 694 l 1250 694 l 1250 972 z m 1250 694 l 1250 556 l 1389 556 l 1389 694 z "},"°":{"ha":660,"x_min":0,"x_max":0,"o":"m 139 972 l 139 833 l 417 833 l 417 972 z m 417 833 l 417 694 l 556 694 l 556 833 z m 417 694 l 139 694 l 139 556 l 417 556 z m 0 833 l 0 694 l 139 694 l 139 833 z "},"|":{"ha":243,"x_min":0,"x_max":0,"o":"m 0 972 l 0 -278 l 139 -278 l 139 972 z "},"¦":{"ha":243,"x_min":0,"x_max":0,"o":"m 0 972 l 0 417 l 139 417 l 139 972 z m 0 278 l 0 -278 l 139 -278 l 139 278 z "},"†":{"ha":521,"x_min":0,"x_max":0,"o":"m 139 972 l 139 833 l 0 833 l 0 694 l 139 694 l 139 278 l 278 278 l 278 694 l 417 694 l 417 833 l 278 833 l 278 972 z "},"‡":{"ha":521,"x_min":0,"x_max":0,"o":"m 139 972 l 139 833 l 0 833 l 0 694 l 139 694 l 139 556 l 0 556 l 0 417 l 139 417 l 139 278 l 278 278 l 278 417 l 417 417 l 417 556 l 278 556 l 278 694 l 417 694 l 417 833 l 278 833 l 278 972 z "},"⬤":{"ha":1354,"x_min":0,"x_max":0,"o":"m 833 972 l 417 972 l 417 833 l 278 833 l 278 694 l 139 694 l 139 556 l 0 556 l 0 139 l 139 139 l 139 0 l 278 0 l 278 -139 l 417 -139 l 417 -278 l 833 -278 l 833 -139 l 972 -139 l 972 0 l 1111 0 l 1111 139 l 1250 139 l 1250 556 l 1111 556 l 1111 694 l 972 694 l 972 833 l 833 833 z m 1111 278 l 972 278 l 972 279 l 1111 279 z "},"⬔":{"ha":1354,"x_min":0,"x_max":0,"o":"m 1250 972 l 0 972 l 0 -278 l 1250 -278 z m 278 694 l 278 556 l 417 556 l 417 417 l 556 417 l 556 278 l 694 278 l 694 139 l 833 139 l 833 0 l 972 0 l 972 -139 l 139 -139 l 139 694 z "},"¢":{"ha":938,"x_min":0,"x_max":0,"o":"m 417 972 l 417 833 l 278 833 l 278 694 l 417 694 l 417 139 l 278 139 l 278 0 l 417 0 l 417 -139 l 556 -139 l 556 0 l 694 0 l 694 139 l 556 139 l 556 694 l 694 694 l 694 833 l 556 833 l 556 972 z m 139 694 l 139 556 l 278 556 l 278 694 z m 694 694 l 694 556 l 833 556 l 833 694 z m 0 556 l 0 278 l 139 278 l 139 556 z m 139 278 l 139 139 l 278 139 l 278 278 z m 694 278 l 694 139 l 833 139 l 833 278 z "},"$":{"ha":1076,"x_min":0,"x_max":0,"o":"m 556 972 l 556 1111 l 417 1111 l 417 972 l 139 972 l 139 833 l 417 833 l 417 556 l 278 556 l 278 417 l 417 417 l 417 139 l 139 139 l 139 0 l 417 0 l 417 -139 l 556 -139 l 556 0 l 833 0 l 833 139 l 556 139 l 556 417 l 694 417 l 694 556 l 556 556 l 556 833 l 833 833 l 833 972 z m 0 833 l 0 694 l 139 694 l 139 833 z m 139 694 l 139 556 l 278 556 l 278 694 z m 694 417 l 694 278 l 833 278 l 833 417 z m 139 139 l 139 278 l 0 278 l 0 139 z m 833 833 l 833 694 l 972 694 l 972 833 z m 833 278 l 833 139 l 972 139 l 972 278 z "},"€":{"ha":1076,"x_min":0,"x_max":0,"o":"m 833 972 l 417 972 l 417 833 l 833 833 z m 833 833 l 833 694 l 972 694 l 972 833 z m 278 833 l 278 694 l 417 694 l 417 833 z m 139 694 l 139 556 l 0 556 l 0 417 l 139 417 l 139 278 l 278 278 l 278 417 l 833 417 l 833 556 l 278 556 l 278 694 z m 278 278 l 278 139 l 417 139 l 417 278 z m 417 139 l 417 0 l 833 0 l 833 139 z m 833 278 l 833 139 l 972 139 l 972 278 z "},"£":{"ha":1076,"x_min":0,"x_max":0,"o":"m 417 972 l 417 833 l 833 833 l 833 972 z m 278 833 l 278 556 l 0 556 l 0 417 l 417 417 l 417 278 l 556 278 l 556 417 l 833 417 l 833 556 l 417 556 l 417 833 z m 278 278 l 278 139 l 139 139 l 139 0 l 972 0 l 972 139 l 417 139 l 417 278 z m 833 833 l 833 694 l 972 694 l 972 833 z "},"¥":{"ha":1076,"x_min":0,"x_max":0,"o":"m 0 972 l 0 833 l 139 833 l 139 972 z m 139 833 l 139 694 l 278 694 l 278 833 z m 278 694 l 278 556 l 139 556 l 139 417 l 417 417 l 417 278 l 139 278 l 139 139 l 417 139 l 417 0 l 556 0 l 556 139 l 833 139 l 833 278 l 556 278 l 556 417 l 833 417 l 833 556 l 694 556 l 694 694 l 556 694 l 556 556 l 417 556 l 417 694 z m 694 833 l 694 694 l 833 694 l 833 833 z m 833 972 l 833 833 l 972 833 l 972 972 z "},"+":{"ha":799,"x_min":0,"x_max":0,"o":"m 0 417 l 0 278 l 278 278 l 278 0 l 417 0 l 417 278 l 694 278 l 694 417 l 417 417 l 417 694 l 278 694 l 278 417 z "},"−":{"ha":799,"x_min":0,"x_max":0,"o":"m 0 417 l 0 278 l 694 278 l 694 417 z "},"×":{"ha":799,"x_min":0,"x_max":0,"o":"m 556 694 l 556 556 l 694 556 l 694 694 z m 417 556 l 417 417 l 556 417 l 556 556 z m 278 417 l 278 556 l 139 556 l 139 417 z m 278 417 l 278 278 l 417 278 l 417 417 z m 139 278 l 139 139 l 278 139 l 278 278 z m 0 139 l 0 0 l 139 0 l 139 139 z m 0 694 l 0 556 l 139 556 l 139 694 z m 417 278 l 417 139 l 556 139 l 556 278 z m 556 139 l 556 0 l 694 0 l 694 139 z "},"÷":{"ha":799,"x_min":0,"x_max":0,"o":"m 0 417 l 0 278 l 694 278 l 694 417 z m 278 694 l 278 556 l 417 556 l 417 694 z m 278 139 l 278 0 l 417 0 l 417 139 z "},"=":{"ha":799,"x_min":0,"x_max":0,"o":"m 0 556 l 0 417 l 694 417 l 694 556 z m 694 278 l 0 278 l 0 139 l 694 139 z "},"≠":{"ha":799,"x_min":0,"x_max":0,"o":"m 0 556 l 0 417 l 278 417 l 278 278 l 0 278 l 0 139 l 139 139 l 139 0 l 278 0 l 278 139 l 694 139 l 694 278 l 417 278 l 417 417 l 694 417 l 694 556 l 556 556 l 556 694 l 417 694 l 417 556 z "},">":{"ha":1076,"x_min":0,"x_max":0,"o":"m 278 833 l 0 833 l 0 694 l 278 694 z m 278 694 l 278 556 l 556 556 l 556 694 z m 556 556 l 556 417 l 972 417 l 972 556 z m 556 417 l 278 417 l 278 278 l 556 278 z m 278 278 l 0 278 l 0 139 l 278 139 z "},"<":{"ha":1076,"x_min":0,"x_max":0,"o":"m 0 556 l 0 417 l 417 417 l 417 556 z m 417 694 l 417 556 l 694 556 l 694 694 z m 694 833 l 694 694 l 972 694 l 972 833 z m 417 417 l 417 278 l 694 278 l 694 417 z m 694 278 l 694 139 l 972 139 l 972 278 z "},"≥":{"ha":1076,"x_min":0,"x_max":0,"o":"m 278 833 l 0 833 l 0 694 l 278 694 z m 278 694 l 278 556 l 556 556 l 556 694 z m 556 556 l 556 417 l 972 417 l 972 556 z m 556 417 l 278 417 l 278 278 l 556 278 z m 278 278 l 0 278 l 0 139 l 278 139 z m 0 0 l 0 -139 l 972 -139 l 972 0 z "},"≤":{"ha":1076,"x_min":0,"x_max":0,"o":"m 0 556 l 0 417 l 417 417 l 417 556 z m 417 694 l 417 556 l 694 556 l 694 694 z m 694 833 l 694 694 l 972 694 l 972 833 z m 417 417 l 417 278 l 694 278 l 694 417 z m 694 278 l 694 139 l 972 139 l 972 278 z m 972 0 l 0 0 l 0 -139 l 972 -139 z "},"±":{"ha":799,"x_min":0,"x_max":0,"o":"m 0 417 l 0 278 l 278 278 l 278 139 l 417 139 l 417 278 l 694 278 l 694 417 l 417 417 l 417 694 l 278 694 l 278 417 z m 694 0 l 0 0 l 0 -139 l 694 -139 z "},"≈":{"ha":938,"x_min":0,"x_max":0,"o":"m 139 694 l 139 556 l 417 556 l 417 694 z m 0 556 l 0 417 l 139 417 l 139 556 z m 417 556 l 417 417 l 694 417 l 694 556 z m 694 694 l 694 556 l 833 556 l 833 694 z m 139 278 l 139 139 l 417 139 l 417 278 z m 0 139 l 0 0 l 139 0 l 139 139 z m 417 139 l 417 0 l 694 0 l 694 139 z m 694 278 l 694 139 l 833 139 l 833 278 z "},"~":{"ha":938,"x_min":0,"x_max":0,"o":"m 139 694 l 139 556 l 417 556 l 417 694 z m 0 556 l 0 417 l 139 417 l 139 556 z m 417 556 l 417 417 l 694 417 l 694 556 z m 694 694 l 694 556 l 833 556 l 833 694 z "},"¬":{"ha":938,"x_min":0,"x_max":0,"o":"m 0 694 l 0 556 l 694 556 l 694 278 l 833 278 l 833 694 z "},"^":{"ha":521,"x_min":0,"x_max":0,"o":"m 139 972 l 139 833 l 278 833 l 278 972 z m 0 833 l 0 694 l 139 694 l 139 833 z m 278 833 l 278 694 l 417 694 l 417 833 z "},"∫":{"ha":799,"x_min":0,"x_max":0,"o":"m 556 972 l 556 833 l 694 833 l 694 972 z m 417 833 l 417 694 l 556 694 l 556 833 z m 278 694 l 278 139 l 417 139 l 417 694 z m 0 0 l 0 -139 l 139 -139 l 139 0 z m 139 139 l 139 0 l 278 0 l 278 139 z "},"∑":{"ha":799,"x_min":0,"x_max":0,"o":"m 694 972 l 0 972 l 0 833 l 139 833 l 139 694 l 278 694 l 278 833 l 694 833 z m 278 694 l 278 556 l 417 556 l 417 694 z m 417 556 l 417 417 l 556 417 l 556 556 z m 278 417 l 278 278 l 417 278 l 417 417 z m 139 278 l 139 139 l 0 139 l 0 0 l 694 0 l 694 139 l 278 139 l 278 278 z "},"%":{"ha":1076,"x_min":0,"x_max":0,"o":"m 139 972 l 139 833 l 278 833 l 278 972 z m 0 833 l 0 694 l 139 694 l 139 833 z m 278 833 l 278 694 l 417 694 l 417 833 z m 139 694 l 139 556 l 278 556 l 278 694 z m 0 139 l 0 0 l 139 0 l 139 139 z m 139 278 l 139 139 l 278 139 l 278 278 z m 278 417 l 278 278 l 417 278 l 417 417 z m 417 556 l 417 417 l 556 417 l 556 556 z m 556 694 l 556 556 l 694 556 l 694 694 z m 694 833 l 694 694 l 833 694 l 833 833 z m 833 972 l 833 833 l 972 833 l 972 972 z m 694 417 l 694 278 l 833 278 l 833 417 z m 556 278 l 556 139 l 694 139 l 694 278 z m 694 139 l 694 0 l 833 0 l 833 139 z m 833 278 l 833 139 l 972 139 l 972 278 z "},"‰":{"ha":1632,"x_min":0,"x_max":0,"o":"m 139 972 l 139 833 l 278 833 l 278 972 z m 0 833 l 0 694 l 139 694 l 139 833 z m 278 833 l 278 694 l 417 694 l 417 833 z m 139 694 l 139 556 l 278 556 l 278 694 z m 0 139 l 0 0 l 139 0 l 139 139 z m 139 278 l 139 139 l 278 139 l 278 278 z m 278 417 l 278 278 l 417 278 l 417 417 z m 417 556 l 417 417 l 556 417 l 556 556 z m 556 694 l 556 556 l 694 556 l 694 694 z m 694 833 l 694 694 l 833 694 l 833 833 z m 833 972 l 833 833 l 972 833 l 972 972 z m 694 417 l 694 278 l 833 278 l 833 417 z m 556 278 l 556 139 l 694 139 l 694 278 z m 694 139 l 694 0 l 833 0 l 833 139 z m 833 278 l 833 139 l 972 139 l 972 278 z m 1250 417 l 1250 278 l 1389 278 l 1389 417 z m 1111 278 l 1111 139 l 1250 139 l 1250 278 z m 1250 139 l 1250 0 l 1389 0 l 1389 139 z m 1389 278 l 1389 139 l 1528 139 l 1528 278 z "},"↑":{"ha":1076,"x_min":0,"x_max":0,"o":"m 417 972 l 417 833 l 556 833 l 556 972 z m 556 833 l 556 694 l 694 694 l 694 833 z m 278 833 l 278 694 l 417 694 l 417 833 z m 694 694 l 694 556 l 833 556 l 833 694 z m 833 556 l 833 417 l 972 417 l 972 556 z m 139 694 l 139 556 l 278 556 l 278 694 z m 0 556 l 0 417 l 139 417 l 139 556 z m 417 694 l 417 0 l 556 0 l 556 694 z "},"→":{"ha":1076,"x_min":0,"x_max":0,"o":"m 694 694 l 694 833 l 556 833 l 556 694 z m 694 694 l 694 556 l 833 556 l 833 694 z m 694 556 l 0 556 l 0 417 l 694 417 z m 556 833 l 556 972 l 417 972 l 417 833 z m 833 556 l 833 417 l 972 417 l 972 556 z m 556 278 l 556 139 l 694 139 l 694 278 z m 694 417 l 694 278 l 833 278 l 833 417 z m 417 139 l 417 0 l 556 0 l 556 139 z "},"↓":{"ha":1076,"x_min":0,"x_max":0,"o":"m 417 139 l 417 278 l 278 278 l 278 139 z m 417 139 l 417 0 l 556 0 l 556 139 z m 278 278 l 278 417 l 139 417 l 139 278 z m 139 417 l 139 556 l 0 556 l 0 417 z m 556 278 l 556 972 l 417 972 l 417 278 z m 556 278 l 556 139 l 694 139 l 694 278 z m 694 417 l 694 278 l 833 278 l 833 417 z m 833 556 l 833 417 l 972 417 l 972 556 z "},"←":{"ha":1076,"x_min":0,"x_max":0,"o":"m 0 556 l 0 417 l 139 417 l 139 556 z m 139 694 l 139 556 l 278 556 l 278 694 z m 278 833 l 278 694 l 417 694 l 417 833 z m 417 972 l 417 833 l 556 833 l 556 972 z m 139 417 l 139 278 l 278 278 l 278 417 z m 278 278 l 278 139 l 417 139 l 417 278 z m 417 139 l 417 0 l 556 0 l 556 139 z m 972 556 l 278 556 l 278 417 l 972 417 z "},"◯":{"ha":1250,"x_min":0,"x_max":0,"o":"m 833 972 l 417 972 l 417 833 l 833 833 z m 278 833 l 278 694 l 417 694 l 417 833 z m 833 833 l 833 694 l 972 694 l 972 833 z m 972 694 l 972 556 l 1111 556 l 1111 694 z m 139 694 l 139 556 l 278 556 l 278 694 z m 0 556 l 0 139 l 139 139 l 139 556 z m 139 139 l 139 0 l 278 0 l 278 139 z m 278 0 l 278 -139 l 417 -139 l 417 0 z m 417 -139 l 417 -278 l 833 -278 l 833 -139 z m 833 0 l 833 -139 l 972 -139 l 972 0 z m 1111 556 l 1111 139 l 1250 139 l 1250 556 z m 972 139 l 972 0 l 1111 0 l 1111 139 z "},"◊":{"ha":694,"x_min":0,"x_max":0,"o":"m 278 972 l 278 694 l 417 694 l 417 972 z m 139 694 l 139 417 l 278 417 l 278 694 z m 0 417 l 0 278 l 139 278 l 139 417 z m 139 278 l 139 0 l 278 0 l 278 278 z m 278 0 l 278 -278 l 417 -278 l 417 0 z m 417 278 l 417 0 l 556 0 l 556 278 z m 556 417 l 556 694 l 417 694 l 417 417 z m 556 417 l 556 278 l 694 278 l 694 417 z "},"◻":{"ha":1250,"x_min":0,"x_max":0,"o":"m 1111 833 l 1111 -139 l 139 -139 l 139 833 z m 1250 972 l 0 972 l 0 -278 l 1250 -278 z "},"◀":{"ha":972,"x_min":0,"x_max":0,"o":"m 556 833 l 556 694 l 278 694 l 278 556 l 0 556 l 0 417 l 278 417 l 278 278 l 556 278 l 556 139 l 833 139 l 833 0 l 972 0 l 972 972 l 833 972 l 833 833 z "},"◥":{"ha":1389,"x_min":0,"x_max":0,"o":"m 1250 -139 l 1250 -278 l 1389 -278 l 1389 1111 l 0 1111 l 0 972 l 139 972 l 139 833 l 278 833 l 278 694 l 417 694 l 417 556 l 556 556 l 556 417 l 694 417 l 694 278 l 833 278 l 833 139 l 972 139 l 972 0 l 1111 0 l 1111 -139 z "},"◢":{"ha":1389,"x_min":0,"x_max":0,"o":"m 1111 972 l 1111 833 l 972 833 l 972 694 l 833 694 l 833 556 l 694 556 l 694 417 l 556 417 l 556 278 l 417 278 l 417 139 l 278 139 l 278 0 l 139 0 l 139 -139 l 0 -139 l 0 -278 l 1389 -278 l 1389 1111 l 1250 1111 l 1250 972 z "},"◣":{"ha":1389,"x_min":0,"x_max":0,"o":"m 0 1111 l 0 -278 l 1389 -278 l 1389 -139 l 1250 -139 l 1250 0 l 1111 0 l 1111 139 l 972 139 l 972 278 l 833 278 l 833 417 l 694 417 l 694 556 l 556 556 l 556 694 l 417 694 l 417 833 l 278 833 l 278 972 l 139 972 l 139 1111 z "},"◤":{"ha":1389,"x_min":0,"x_max":0,"o":"m 0 1110 l 0 139 l 139 139 l 139 138 l 0 138 l 0 -279 l 139 -279 l 139 -140 l 278 -140 l 278 -1 l 139 -1 l 139 0 l 278 0 l 278 -1 l 417 -1 l 417 138 l 278 138 l 278 139 l 417 139 l 417 138 l 556 138 l 556 276 l 417 276 l 417 278 l 556 278 l 556 276 l 694 276 l 694 415 l 556 415 l 556 417 l 694 417 l 694 415 l 833 415 l 833 554 l 694 554 l 694 556 l 833 556 l 833 554 l 972 554 l 972 693 l 1111 693 l 1111 832 l 1250 832 l 1250 971 l 1389 971 l 1389 1110 z "},"◹":{"ha":833,"x_min":0,"x_max":0,"o":"m 833 833 l 0 833 l 0 694 l 139 694 l 139 556 l 278 556 l 278 694 l 694 694 l 694 278 l 556 278 l 556 139 l 694 139 l 694 0 l 833 0 z m 556 278 l 556 417 l 417 417 l 417 278 z m 417 417 l 417 556 l 278 556 l 278 417 z "},"◸":{"ha":833,"x_min":0,"x_max":0,"o":"m 694 833 l 0 833 l 0 139 l 139 139 l 139 138 l 278 138 l 278 276 l 139 276 l 139 694 l 694 694 l 694 693 l 833 693 l 833 832 l 694 832 z m 0 138 l 0 -1 l 139 -1 l 139 138 z m 278 415 l 278 276 l 417 276 l 417 415 z m 417 554 l 417 415 l 556 415 l 556 554 z m 556 693 l 556 554 l 694 554 l 694 693 z "},"¨":{"ha":0,"x_min":0,"x_max":0,"o":"m 0 1111 l 0 972 l 139 972 l 139 1111 z m 278 1111 l 278 972 l 417 972 l 417 1111 z "},"˙":{"ha":0,"x_min":0,"x_max":0,"o":"m 0 1111 l 0 972 l 139 972 l 139 1111 z "},"`":{"ha":0,"x_min":0,"x_max":0,"o":"m 139 1111 l 139 1250 l 0 1250 l 0 1111 z m 139 1111 l 139 972 l 278 972 l 278 1111 z m 278 972 l 278 833 l 417 833 l 417 972 z "},"´":{"ha":0,"x_min":0,"x_max":0,"o":"m 0 972 l 0 833 l 139 833 l 139 972 z m 139 1111 l 139 972 l 278 972 l 278 1111 z m 278 1250 l 278 1111 l 417 1111 l 417 1250 z "},"˝":{"ha":0,"x_min":0,"x_max":0,"o":"m 278 1250 l 278 1111 l 417 1111 l 417 1250 z m 139 1111 l 139 972 l 278 972 l 278 1111 z m 694 1250 l 694 1111 l 833 1111 l 833 1250 z m 556 1111 l 556 972 l 694 972 l 694 1111 z m 0 972 l 0 833 l 139 833 l 139 972 z m 417 972 l 417 833 l 556 833 l 556 972 z "},"ˆ":{"ha":0,"x_min":0,"x_max":0,"o":"m 139 1111 l 139 972 l 278 972 l 278 1111 z m 0 972 l 0 833 l 139 833 l 139 972 z m 278 972 l 278 833 l 417 833 l 417 972 z "},"ˇ":{"ha":0,"x_min":0,"x_max":0,"o":"m 0 1111 l 0 972 l 139 972 l 139 1111 z m 139 972 l 139 833 l 278 833 l 278 972 z m 278 1111 l 278 972 l 417 972 l 417 1111 z "},"˘":{"ha":0,"x_min":0,"x_max":0,"o":"m 139 972 l 139 1111 l 0 1111 l 0 972 z m 139 972 l 139 833 l 417 833 l 417 972 z m 417 1111 l 417 972 l 556 972 l 556 1111 z "},"˚":{"ha":0,"x_min":0,"x_max":0,"o":"m 139 1250 l 139 1111 l 278 1111 l 278 1250 z m 0 1111 l 0 972 l 139 972 l 139 1111 z m 278 1111 l 278 972 l 417 972 l 417 1111 z m 139 972 l 139 833 l 278 833 l 278 972 z "},"˜":{"ha":0,"x_min":0,"x_max":0,"o":"m 139 1250 l 139 1111 l 278 1111 l 278 1250 z m 278 1111 l 278 972 l 417 972 l 417 1111 z m 0 1111 l 0 833 l 139 833 l 139 1111 z m 417 972 l 417 833 l 556 833 l 556 972 z m 556 1250 l 556 972 l 694 972 l 694 1250 z "},"¯":{"ha":0,"x_min":0,"x_max":0,"o":"m 417 1111 l 0 1111 l 0 972 l 417 972 z "},"¸":{"ha":0,"x_min":0,"x_max":0,"o":"m 278 0 l 278 -139 l 417 -139 l 417 0 z m 417 -139 l 417 -278 l 556 -278 l 556 -139 z m 139 -278 l 139 -139 l 0 -139 l 0 -278 z m 139 -278 l 139 -417 l 417 -417 l 417 -278 z m 417 139 l 417 0 l 556 0 l 556 139 z "},"˛":{"ha":0,"x_min":0,"x_max":0,"o":"m 139 0 l 139 -139 l 278 -139 l 278 0 z m 0 -139 l 0 -278 l 139 -278 l 139 -139 z m 139 -278 l 139 -417 l 417 -417 l 417 -278 z m 417 -139 l 417 -278 l 556 -278 l 556 -139 z "}}}
